/* XPM */
static char *e6d0ec76ae7e46adc93b8ccebc311ac8[] = {
/* columns rows colors chars-per-pixel */
"64 64 256 2 ",
"   c #000000",
".  c #0A0905",
"X  c #14120C",
"o  c #1A180E",
"O  c #1D1A10",
"+  c #2E2A1B",
"@  c #2B2717",
"#  c #2E2913",
"$  c #262626",
"%  c #2A2A25",
"&  c #2C2C2B",
"*  c #3B3622",
"=  c #32322E",
"-  c #3B3727",
";  c #343433",
":  c #3D3D3C",
">  c #3A3A35",
",  c #201D13",
"<  c #433C20",
"1  c #7C691D",
"2  c #474228",
"3  c #544C2B",
"4  c #544A25",
"5  c #42413E",
"6  c #544D34",
"7  c #524C3A",
"8  c #595238",
"9  c #5E522F",
"0  c #605633",
"q  c #625933",
"w  c #6A5E38",
"e  c #66562A",
"r  c #7B6929",
"t  c #6E6339",
"y  c #786B37",
"u  c #766E35",
"i  c #454543",
"p  c #4A4A44",
"a  c #4D4D4B",
"s  c #51514D",
"d  c #585749",
"f  c #545453",
"g  c #5C5C59",
"h  c #5B5B54",
"j  c #4F5045",
"k  c #605F55",
"l  c #756D45",
"z  c #7A7347",
"x  c #6C6A53",
"c  c #666557",
"v  c #726E57",
"b  c #797457",
"n  c #6D6545",
"m  c #656563",
"M  c #6B6B64",
"N  c #7C7C6D",
"B  c #757568",
"V  c #7C7C74",
"C  c #7D7D7B",
"Z  c #767672",
"A  c #5F6053",
"S  c #8D721D",
"D  c #93741C",
"F  c #9B7A1C",
"G  c #987819",
"H  c #8B6F1A",
"J  c #A57E18",
"K  c #866E26",
"L  c #8D7123",
"P  c #89712B",
"I  c #967826",
"U  c #897639",
"Y  c #947C38",
"T  c #806B36",
"R  c #847846",
"E  c #827C57",
"W  c #937E44",
"Q  c #817F77",
"!  c #7F8078",
"~  c #9D801D",
"^  c #AC851C",
"/  c #AB851C",
"(  c #B38D1E",
")  c #B88F1E",
"_  c #BC921C",
"`  c #9C822C",
"'  c #9F8322",
"]  c #9C8234",
"[  c #9C833C",
"{  c #A38224",
"}  c #AB8623",
"|  c #A2822B",
" . c #AE8A29",
".. c #B48D24",
"X. c #B38D2C",
"o. c #BC9223",
"O. c #BB952A",
"+. c #B59027",
"@. c #A98B37",
"#. c #B69434",
"$. c #BB9532",
"%. c #B4933B",
"&. c #BA983A",
"*. c #AC923B",
"=. c #C5981A",
"-. c #D09F1A",
";. c #C49A24",
":. c #C39B2D",
">. c #C69B26",
",. c #C39D35",
"<. c #CCA42A",
"1. c #D4A928",
"2. c #CCA433",
"3. c #CBA43B",
"4. c #C9A439",
"5. c #D4AC36",
"6. c #DBB33B",
"7. c #E5B82B",
"8. c #E3BA38",
"9. c #DAA91E",
"0. c #EAC13B",
"q. c #F3C83A",
"w. c #9A8847",
"e. c #87815D",
"r. c #908B5B",
"t. c #AB9247",
"y. c #B89947",
"u. c #AA954E",
"i. c #BCA85A",
"p. c #898467",
"a. c #948C68",
"s. c #9D9A66",
"d. c #83837C",
"f. c #8C8B7A",
"g. c #8B8979",
"h. c #999778",
"j. c #918E75",
"k. c #AC9E68",
"l. c #B7AA7A",
"z. c #B1A46C",
"x. c #CEA943",
"c. c #C9A848",
"v. c #D3AD46",
"b. c #DEB94C",
"n. c #DAB548",
"m. c #CAAC56",
"M. c #CCB15F",
"N. c #DDBB55",
"B. c #D4B45A",
"V. c #DAB959",
"C. c #D0AF51",
"Z. c #E4BC46",
"A. c #E1BD53",
"S. c #D8BA67",
"D. c #C9B878",
"F. c #C7B263",
"G. c #E0BD61",
"H. c #ECC545",
"J. c #EAC54C",
"K. c #F4CD44",
"L. c #F4CD4B",
"P. c #FAD44B",
"I. c #F8D145",
"U. c #EAC757",
"Y. c #F2CD55",
"T. c #F9D554",
"R. c #FCD854",
"E. c #FDDB5C",
"W. c #F6D259",
"Q. c #DCC269",
"!. c #DBC374",
"~. c #D9C47A",
"^. c #ECCB63",
"/. c #EBCD6B",
"(. c #E5C768",
"). c #F4D262",
"_. c #FDDD64",
"`. c #F4D46B",
"'. c #FDDE6B",
"]. c #F9D761",
"[. c #E9CC76",
"{. c #EDD27C",
"}. c #EBD174",
"|. c #FBDD72",
" X c #F2D57A",
".X c #F6D978",
"XX c #F0CF6B",
"oX c #FFE16E",
"OX c #FEE174",
"+X c #FEE27C",
"@X c #898985",
"#X c #939289",
"$X c #9A9A98",
"%X c #8F908C",
"&X c #9FA095",
"*X c #A8A485",
"=X c #A8A79D",
"-X c #B4B397",
";X c #B7AB81",
":X c #ABABAA",
">X c #A4A4A3",
",X c #B5B4A9",
"<X c #B8B8B7",
"1X c #A19F91",
"2X c #CBBD85",
"3X c #C8BD96",
"4X c #DAC985",
"5X c #D5C899",
"6X c #CEC08F",
"7X c #E7CD83",
"8X c #EDD483",
"9X c #EAD58D",
"0X c #F4DB8A",
"qX c #F4DA84",
"wX c #ECD994",
"eX c #EBD796",
"rX c #F4DC94",
"tX c #F3DD9B",
"yX c #FEE484",
"uX c #FEE58C",
"iX c #FCE58E",
"pX c #FDE692",
"aX c #FEE895",
"sX c #F9E49C",
"dX c #FEE99C",
"fX c #F7E29B",
"gX c #C8C6A8",
"hX c #D8D5BC",
"jX c #CFCBB2",
"kX c #EDDEA6",
"lX c #EADDAC",
"zX c #FAE6A5",
"xX c #FEEBA4",
"cX c #FEECAB",
"vX c #F7E4A7",
"bX c #FDEDB3",
"nX c #FDEEBA",
"mX c #F8E7B1",
"MX c #FEF1BE",
"NX c #FFF0B6",
"BX c #EBE0AF",
"VX c #C9C9C7",
"CX c #D6D6C9",
"ZX c #D9D8D4",
"AX c #E4E2CB",
"SX c #FDEFC0",
"DX c #FEF1C2",
"FX c #E4E3D9",
"GX c #E7E8E4",
"HX c #F3F3ED",
"JX c #F5F5E7",
"KX c #FBFBF4",
"LX c #FEFEFB",
"PX c #F5F5F1",
"IX c #E0DAC6",
"UX c None",
/* pixels */
"UXUXUXUXUXUXUXUXUXUXUXUXUXUXUXUXUXUXUXUXUXUXUXUXUXUXUXUXUXUXUXUXUXUXUXUXUXUXUXUXUXUXUXUXUXUXUXUXUXUXUXUXUXUXUXUXUXUXUXUXUXUXUXUX",
"UXUXUXUXUXUXUXUXUXUXUXUXUXUXUXUXUXUXUXUXUXUXUXUXUXUXUXUXUXUXUXm & UXUXUXUXUXUXUXUXUXUXUXUXUXUXUXUXUXUXUXUXUXUXUXUXUXUXUXUXUXUXUX",
"UXUXUXUXUXUXUXUXUXUXUXUXUXUXUXUXUXUXUXUXUXUXUXUXUXUXUXUXUX>XZXGXC & & UXUXUXUXUXUXUXUXUXUXUXUXUXUXUXUXUXUXUXUXUXUXUXUXUXUXUXUXUX",
"UXUXUXUXUXUXUXUXUXUXUXUXUXUXUXUXUXUXUXUXUXUXUXUXUXUXUXUXVXGXLXLXZXf $ & = UXUXUXUXUXUXUXUXUXUXUXUXUXUXUXUXUXUXUXUXUXUXUXUXUXUXUX",
"UXUXUXUXUXUXUXUXUXUXUXUXUXUXUXUXUXUXUXUXUXUXUXUXUXUX<XGXKXLXZX>XQ m a ; & & UXUXUXUXUXUXUXUXUXUXUXUXUXUXUXUXUXUXUXUXUXUXUXUXUXUX",
"UXUXUXUXUXUXUXUXUXUXUXUXUXUXUXUXUXUXUXUXUXUXUXUX:XZXKXLXFX=XE U U T t d i ; & = UXUXUXUXUXUXUXUXUXUXUXUXUXUXUXUXUXUXUXUXUXUXUXUX",
"UXUXUXUXUXUXUXUXUXUXUXUXUXUXUXUXUXUXUXUXUXUX>XVXPXLXGX,Xp.U @.y.y.%.| P t h a ; & = UXUXUXUXUXUXUXUXUXUXUXUXUXUXUXUXUXUXUXUXUXUX",
"UXUXUXUXUXUXUXUXUXUXUXUXUXUXUXUXUXUXUXUXUX<XGXLXPXjXa.R t.m.D.!.!.B.c.$.} K n g p = = UXUXUXUXUXUXUXUXUXUXUXUXUXUXUXUXUXUXUXUXUX",
"UXUXUXUXUXUXUXUXUXUXUXUXUXUXUXUXUXUXUX<XFXLXKXCXh.W [ y.S.7XeXkXtX9X[.B.x.$.| K n k 5 & ; UXUXUXUXUXUXUXUXUXUXUXUXUXUXUXUXUXUXUX",
"UXUXUXUXUXUXUXUXUXUXUXUXUXUXUXUXUX:XZXPXKXFX*XR Y y.M.!.9XkXmXnXnXvXtX8X(.C.3.X.I t x h ; & > UXUXUXUXUXUXUXUXUXUXUXUXUXUXUXUXUX",
"UXUXUXUXUXUXUXUXUXUXUXUXUXUXUX>XVXHXKXGX-XE I *.c.S.{.rXvXmXDXDXSXSXvXsX0XXXA.x.:.} L y x a = & UXUXUXUXUXUXUXUXUXUXUXUXUXUXUXUX",
"UXUXUXUXUXUXUXUXUXUXUXUXUXUXVXGXLXJXgXr.T | y.V.[.9XfXzXbXmXa.b b E 5XcXsX0X X^.b.3.O.J K l c i = = UXUXUXUXUXUXUXUXUXUXUXUXUXUX",
"UXUXUXUXUXUXUXUXUXUXUXUX<XGXKXKXhXa.T ` &.C.(. XqXsXzXcXbXkX*     . ;XbXxXdXiX.XXXA.6.2...F T n A > & = UXUXUXUXUXUXUXUXUXUXUXUX",
"UXUXUXUXUXUXUXUXUXUX:XFXKXKXIXh.u L #.3.N.^. X0XpXsXzXxXcXkX&     . l.cXxXzXsXiXqX`.A.Z.5.:.^ D u x d - % = UXUXUXUXUXUXUXUXUXUX",
"UXUXUXUXUXUXUXUX>XZXJXKXFXl.u L  .4.b.N.t 4 3 6 6 8 8 8 8 7 X       < d 6 8 6 6 3 3 w.).J.6.<.o./ L u v j = & UXUXUXUXUXUXUXUXUX",
"UXUXUXUXUXUX:XVXHXLXJX-Xz K { ,.6.J.).(.#                                           e |.).Y.Z.7.>.) I r z b p % & UXUXUXUXUXUXUX",
"UXUXUXUXUXm GXLXJXhXr.1 ~ +.5.Z.Y.).oX}.@                                           q +X|.].W.H.8.1.=.( G K b B = & ; UXUXUXUXUX",
"UXUXUXUXUX: ZXPX*Xu S ( 2.8.H.Y.]._.oX}.@                                           q +X|.'._.T.K.0.7.-._ J H l j & > UXUXUXUXUX",
"UXUXUXUXUX= $XgXu ~ _ 1.0.K.T.E._.oX+X}.+                                           q +X+X|._.E.R.I.H.7.9.-.J 1 2 > ; UXUXUXUXUX",
"UXUXUXUXUX= N h.1 ( 1.0.I.R.E._.oXoXOX}.+                                           q +X+XoXoX_.E.R.P.q.7.-.=.G q p : UXUXUXUXUX",
"UXUXUXUXUX& B s.S ;.7.q.P.R.E.'.oXOX+X}.+                 o , O O O O O , O O O O o y +X+XoX'._.E.E.P.I.q.7.-./ t j p UXUXUXUXUX",
"UXUXUXUXUX& B s.G >.8.I.R.E.E.'.oXOX+X.Xz .               < i.Q.Q.!.!.~.~.~.~.~.~.!.[.yX+XOX|.'._.E.R.P.q.7.-.^ l j a UXUXUXUXUX",
"UXUXUXUXUX% p.s.~ >.0.P.E.E._._.oXOX+XyXqXw.o               < B.+XyXyXiXaXpXpXaXuXuXuXyX+X+XOX'._.E.E.P.q.7.-./ z j s UXUXUXUXUX",
"UXUXUXUXUX% N s.~ <.H.R.E._.oXoXOX+X+XyXiXiXk.@               @ i.+XyXuXuXuXaXpXuXiXuXyXyX+XOX'.oX_.E.R.I.7.:.F R d s UXUXUXUXUX",
"UXUXUXUXUX% N s.F <.H.W._.oX'.OX+X+XyXiXuXaXaXD.*               o w.yXiXpXaXaXaXpXpXpXiXyXyX+XoX'.'._.E.L.8.:.D z c s UXUXUXUXUX",
"UXUXUXUXUX$ V s.' 2.H.]._.oXOXOX+X+XuXiXaXdXdXxX4X8 .             . z 0XaXdXdXdXdXdXaXiXuX+X+XOX|.|._.E.L.n.$.D z ! s UXUXUXUXUX",
"UXUXUXUXUX$ V s.' 2.J.].oXOXOX+X+XyXyXiXaXdXxXcXcXwXl .             . 0 9XxXcXcXxXxXaXpXuXyX+X+XOXOX|._.Y.Z.#.H b g.a UXUXUXUXUX",
"UXUXUXUXUX$ V s.` 2.U.].OX+X+X+XyXyXuXpXpXdXxXcXNXNXmXa.o               - 6XNXcXxXdXaXuXuXyXyX+X+X+X|._.Y.Z.#.S e.f.a UXUXUXUXUX",
"UXUXUXUXUX$ ! s.` 4.U.`.OX+XyXyXyXyXuXpXpXdXdXxXcXMXSXnXl.@               % l.cXdXdXpXiXuXuXyXyX+X+X+X'.W.b.#.L e.@Xs UXUXUXUXUX",
"UXUXUXUXUX$ V h.` 5.U.|.+XyXyXyXuXuXuXpXpXaXdXdXxXbXMXDXDXl.X               6 fXdXaXpXpXuXiXyXyXyXyX+X|.).b.#.S E d.a UXUXUXUXUX",
"UXUXUXUXUX$ V h.` 3.^..XyXuXyXiXuXuXuXuXuXaXaXdXdXxXcXNXBXd               @ D.sXaXpXpXpXiXuXuXuXyXuXyX|.).A.#.L e.! a UXUXUXUXUX",
"UXUXUXUXUX% ! h.] 3.^.+XyXiXiXiXuXuXpXpXpXpXuXpXpXpXaX9X7               + D.aXpXpXpXiXiXiXiXiXpXuXuXuX+X`.N.#.L e.! s UXUXUXUXUX",
"UXUXUXUXUX$ d.h.Y x.^.qXiXaXpXpXaXiXiXiXiXuXuXuXiXyX[.9               # F.yXyXuXuXpXuXpXpXpXiXaXaXpXuX+X`.N.#.D E Q a UXUXUXUXUX",
"UXUXUXUXUX$ g.#X| x./.yXpXaXaXaXaXaXaXiXiXuXyXyX+X/.3               # c.oXOX+XyXyXpXuXpXpXpXaXaXaXaXaXuX.XN.%.I p.Q f UXUXUXUXUX",
"UXUXUXUXUX$ C j.` v.}.0XaXdXdXaXaXaXaXiXuXyXyX+X/.4               @ m.R.E._.oXOX+XyXuXuXiXaXaXaXdXdXaXuX.XN.%.L p.Q a UXUXUXUXUX",
"UXUXUXUXUX$ @Xh.Y C.}.0XdXxXxXdXdXaXaXiXuXyX+X/.4               + D.+XoX_._._.OX+XyXuXaXiXaXdXdXdXdXsXiX XG.%.P p.C a UXUXUXUXUX",
"UXUXUXUXUX$ @Xh.` C.[.rXzXxXxXdXdXdXiXiXuXyX(.4               % 3XdXuX+XOXoXoXoXOX+XuXuXaXaXdXxXxXxXxXsX{.S.*.P p.C a UXUXUXUXUX",
"UXUXUXUXUX$ @Xj.[ C.{.sXxXcXcXxXxXdXdXiXuX[.4               % 3XNXdXiXuX+X+XOX+X+XyXyXuXaXdXdXxXxXcXxXsX{.S.t.P p.C a UXUXUXUXUX",
"UXUXUXUXUX$ %Xj.Y C.7XsXcXbXcXcXxXdXaXiX[.3               + 2XMXNXdXaXiXuXyXyXyXyXyXuXuXaXdXxXxXcXNXcXsXqXS.#.I g.C a UXUXUXUXUX",
"UXUXUXUXUX$ %Xf.[ B.9XzXcXnXbXcXxXxXaXiXq               O l.kXBXkXwX0X9XqX X8X X{.8XqXpXdXdXxXcXcXNXNXzX0XS.y.I j.C a UXUXUXUXUX",
"UXUXUXUXUX$ %Xf.[ S.9XvXmXSXnXcXcXxXdX0X+               o - - - - - * * * * * * * * 2 4XdXxXxXcXbXnXnXzXrXG.%.Y j.C a UXUXUXUXUX",
"UXUXUXUXUX$ $Xf.[ M.eXmXSXSXnXbXcXxXxXwX+                                           o D.xXxXcXNXnXSXnXmXtX!.y.Y f.@Xa UXUXUXUXUX",
"UXUXUXUXUX$ $Xg.W B.9XmXSXSXSXmXNXcXxXwX+                                           X 2XxXcXbXbXnXSXSXmXrX!.y.W 1X%Xa UXUXUXUXUX",
"UXUXUXUXUX% >X@XY m.7XvXmXSXnXnXcXcXxXrX+                                           X 2XxXcXbXnXnXMXnXvXrX!.y.U ,X$Xa UXUXUXUXUX",
"UXUXUXUXUX% :X@XK y.S.eXtXmXbXnXbXcXxXwX*                                           X 2XxXcXcXbXbXmXvXtX{.n.X.Y ZX$Xi UXUXUXUXUX",
"UXUXUXUXUX$ C Z r X.v.G.7XrXfXzXxXxXxXwX+                                           X 2XxXxXcXcXvXzXrX8XA.:.{ k.PX@Xi UXUXUXUXUX",
"UXUXUXUXUX; & : 9 G $.3.N.(.7X0XfXsXsXtXb 0 q q 8 0 0 0 q 9 o     . 2 q q 0 0 0 q 0 n 9XxXxXsXfX0X9X[.G.x.+.I 5XGXm : UXUXUXUXUX",
"UXUXUXUXUX: ; ; 5 9 K } :.c.B.Q.{.0XiXpXuXiXiXiXyXyXyX+X+X X<     . i.yXyXyXyXiXiXpXpXpXiX0XqX X[.S.v.3...| ;XZX@Xa : UXUXUXUXUX",
"UXUXUXUXUXUX= > : p 7 e J ..$.c.B.(.{.qXqXyXyXyXyXyX+X+X+X|.<     . i.+X+XyXyXyXyXuXyXqX.X}.[.G.C.,.X.} z.IXVXQ a 5 UXUXUXUXUXUX",
"UXUXUXUXUXUXUXUX; : a a w L F ^ :.c.V.(..X.X+X+X+X+X+X|.OXOXi.w.w.u./.OX+X+X+XyX+X.X.XXX^.(.B.3.X.J y.jXFX>XM s UXUXUXUXUXUXUXUX",
"UXUXUXUXUXUXUXUXUXUX: i a k T L F ..,.v.N.^.`.|.|.|.|.|.oXoXoXoXoXOX'.|.'.|.|.|.XXXX^.G.C.x.O.J [ 3XFX<XZ g UXUXUXUXUXUXUXUXUXUX",
"UXUXUXUXUXUXUXUXUXUXUXUX5 p f v y L J +.,.v.A.U.`.]._.'._._._._._._.'._.'.'.)./.^.U.b.x.:.^ | l.AXVXd.g f UXUXUXUXUXUXUXUXUXUXUX",
"UXUXUXUXUXUXUXUXUXUXUXUXUX: 5 p A v y D / O.2.n.A.Y.W.].E.E.E.E.E._.E.].].).Y.U.b.5.,...{ i.hXZX#Xm h UXUXUXUXUXUXUXUXUXUXUXUXUX",
"UXUXUXUXUXUXUXUXUXUXUXUXUXUXUX: 5 a c z r F ..:.2.8.J.Y.T.T.R.R.R.R.W.).^.U.Z.6.2... .u.jXZX>XM g UXUXUXUXUXUXUXUXUXUXUXUXUXUXUX",
"UXUXUXUXUXUXUXUXUXUXUXUXUXUXUXUXUX5 i s M z I / o.:.5.8.H.K.I.I.P.W.W.J.J.6.2.;.( y.5XAX,XZ g UXUXUXUXUXUXUXUXUXUXUXUXUXUXUXUXUX",
"UXUXUXUXUXUXUXUXUXUXUXUXUXUXUXUXUXUX5 5 p h v z { ..=.<.5.8.0.K.L.J.0.8.1.;._ O.D.IXVXQ g f UXUXUXUXUXUXUXUXUXUXUXUXUXUXUXUXUXUX",
"UXUXUXUXUXUXUXUXUXUXUXUXUXUXUXUXUXUXUXUX: 5 p A z P } o.;.>.<.n.n.5.<.;._ +.F.BXCX%Xm f UXUXUXUXUXUXUXUXUXUXUXUXUXUXUXUXUXUXUXUX",
"UXUXUXUXUXUXUXUXUXUXUXUXUXUXUXUXUXUXUXUXUXUX5 5 j x e.` / ^ +.&.4.O.( ( c.5XIX&XM g UXUXUXUXUXUXUXUXUXUXUXUXUXUXUXUXUXUXUXUXUXUX",
"UXUXUXUXUXUXUXUXUXUXUXUXUXUXUXUXUXUXUXUXUXUXUX: : i d b w.` ` @.*.' *.~.BX:XB h UXUXUXUXUXUXUXUXUXUXUXUXUXUXUXUXUXUXUXUXUXUXUXUX",
"UXUXUXUXUXUXUXUXUXUXUXUXUXUXUXUXUXUXUXUXUXUXUXUXUX: 5 p B s.u.@.*.z.gX-X! A UXUXUXUXUXUXUXUXUXUXUXUXUXUXUXUXUXUXUXUXUXUXUXUXUXUX",
"UXUXUXUXUXUXUXUXUXUXUXUXUXUXUXUXUXUXUXUXUXUXUXUXUXUXUX: : f g.*Xa.! M h a UXUXUXUXUXUXUXUXUXUXUXUXUXUXUXUXUXUXUXUXUXUXUXUXUXUXUX",
"UXUXUXUXUXUXUXUXUXUXUXUXUXUXUXUXUXUXUXUXUXUXUXUXUXUXUXUX> : : i p p a UXUXUXUXUXUXUXUXUXUXUXUXUXUXUXUXUXUXUXUXUXUXUXUXUXUXUXUXUX",
"UXUXUXUXUXUXUXUXUXUXUXUXUXUXUXUXUXUXUXUXUXUXUXUXUXUXUXUXUXUX; : > UXUXUXUXUXUXUXUXUXUXUXUXUXUXUXUXUXUXUXUXUXUXUXUXUXUXUXUXUXUXUX",
"UXUXUXUXUXUXUXUXUXUXUXUXUXUXUXUXUXUXUXUXUXUXUXUXUXUXUXUXUXUXUXUXUXUXUXUXUXUXUXUXUXUXUXUXUXUXUXUXUXUXUXUXUXUXUXUXUXUXUXUXUXUXUXUX"
};
