/* XPM */
static char *a8a880817a5d4101f21939516e683cdd[] = {
/* columns rows colors chars-per-pixel */
"16 16 163 2 ",
"   c black",
".  c #010100",
"X  c #010101",
"o  c #040301",
"O  c #040402",
"+  c #050502",
"@  c #090907",
"#  c #100F0A",
"$  c #191812",
"%  c #1D1A10",
"&  c #231F11",
"*  c #232015",
"=  c #242117",
"-  c #282314",
";  c #302B18",
":  c #332D18",
">  c #423D2F",
",  c #574F2E",
"<  c #5B522F",
"1  c #5F542E",
"2  c #484332",
"3  c #484535",
"4  c #4F4C37",
"5  c #574F30",
"6  c #524B37",
"7  c #504B39",
"8  c #524D3A",
"9  c #575037",
"0  c #5C5335",
"q  c #5B5437",
"w  c #625835",
"e  c #695D31",
"r  c #645B3E",
"t  c #645D3E",
"y  c #7B6A32",
"u  c #76693B",
"i  c #74683C",
"p  c #776B3E",
"a  c #535048",
"s  c #5B584A",
"d  c #5A5A59",
"f  c #6F6A48",
"g  c #726741",
"h  c #716B4C",
"j  c #6B6858",
"k  c #716A50",
"l  c #706B52",
"z  c #706C56",
"x  c #746F57",
"c  c #706C59",
"v  c #736E5A",
"b  c #746E58",
"n  c #726D5E",
"m  c #797052",
"M  c #7F7A6A",
"N  c #9A7F2A",
"B  c #86713A",
"V  c #8A783D",
"C  c #8E793C",
"Z  c #967F3A",
"A  c #85794F",
"S  c #807E75",
"D  c #A98F3B",
"F  c #BB9B3B",
"G  c #CAA42E",
"H  c #CBAB39",
"J  c #D2AE3F",
"K  c #E2BA3A",
"L  c #9E8749",
"P  c #8F8154",
"I  c #8F8357",
"U  c #968351",
"Y  c #908358",
"T  c #A88E41",
"R  c #B89E49",
"E  c #A39355",
"W  c #BFA14C",
"Q  c #BAA75B",
"!  c #BDA658",
"~  c #BFA75F",
"^  c #968F7B",
"/  c #AB9D69",
"(  c #A09778",
")  c #B5A467",
"_  c #BFA865",
"`  c #B5A26B",
"'  c #C5A541",
"]  c #C4A74C",
"[  c #D1B24A",
"{  c #DDBA4B",
"}  c #C4A856",
"|  c #CBB359",
" . c #D0B558",
".. c #D1B35D",
"X. c #D2B45F",
"o. c #D3BA5B",
"O. c #E0BD45",
"+. c #C2A961",
"@. c #C7B06C",
"#. c #CFBA6F",
"$. c #D0B766",
"%. c #D1BA75",
"&. c #D0BA7C",
"*. c #DEC25D",
"=. c #F3CE4C",
"-. c #F3CF51",
";. c #FEDA57",
":. c #FFDD5F",
">. c #D6C07B",
",. c #EBCC67",
"<. c #ECCC69",
"1. c #FAD864",
"2. c #F0D56F",
"3. c #FEDE6B",
"4. c #E6CD70",
"5. c #E7CB7D",
"6. c #E8CD7F",
"7. c #EBD47D",
"8. c #F4D874",
"9. c #FCDF73",
"0. c #FBDD74",
"q. c #FEE071",
"w. c #FEE174",
"e. c #FEE27D",
"r. c #939384",
"t. c #BCBCBB",
"y. c #C3B789",
"u. c #C3B58C",
"i. c #C7BA8B",
"p. c #D7C480",
"a. c #D7C384",
"s. c #D7C58D",
"d. c #DFCE8B",
"f. c #E8D48D",
"g. c #F4DC82",
"h. c #E4D395",
"j. c #EFDC92",
"k. c #ECDD9D",
"l. c #F5DF97",
"z. c #FEE380",
"x. c #FEE483",
"c. c #FFE586",
"v. c #FEE58B",
"b. c #FFE78A",
"n. c #FEE68D",
"m. c #FDE590",
"M. c #F8E396",
"N. c #FFE893",
"B. c #FEE894",
"V. c #FFE995",
"C. c #FEE896",
"Z. c #FFEA98",
"A. c #FFEB98",
"S. c #FDE99E",
"D. c #CCC7B4",
"F. c #CDC9B8",
"G. c #F8E6A7",
"H. c #FDE9A4",
"J. c #FFECA9",
"K. c #FDECB2",
"L. c #FFF0B7",
"P. c #CFCEC0",
"I. c None",
/* pixels */
"I.I.I.I.I.I.I.t.d I.I.I.I.I.I.I.",
"I.I.I.I.I.I.D.u.U 0 I.I.I.I.I.I.",
"I.I.I.I.F.i.>.s.a.X.C 9 I.I.I.I.",
"I.I.P.y.! V Y 8 2 P T F y 4 I.I.",
"I.r.Q O.*.& X X + X 1 1.K N 3 I.",
"I.f H :.8.w X : E ) #.q.;.G t I.",
"I.h [ q.c.j.m # , d.A.x.3.' l I.",
"I.l  .x.n.Z.k.> X I V.v.e.] x I.",
"I.z $.C.N.g.i @ e 2.v.B.n.} b I.",
"I.c %.J.M.p o 7 p.4.7.S.H.+.v I.",
"I.n &.L.h.& X $ = % q G.K.@.M I.",
"I.a L 5.f.g < ; - , A l.d._ S I.",
"I.I.7 B ] ,.0.o.| 0.<.X.) ^ I.I.",
"I.I.I.I.r Z J =.-.{ +.( I.I.I.I.",
"I.I.I.I.I.I.u D R / I.I.I.I.I.I.",
"I.I.I.I.I.I.I.s j I.I.I.I.I.I.I."
};
