/* XPM */
static char *result[] = {
/* columns rows colors chars-per-pixel */
"129 129 48 1 ",
"  c #9B1C2E",
". c #A02738",
"X c #A02839",
"o c #A1293A",
"O c #A43142",
"+ c #A53343",
"@ c #A53444",
"# c #A73747",
"$ c #A83A4A",
"% c #A93C4B",
"& c #A93D4C",
"* c #AA3F4E",
"= c #AC4352",
"- c #AD4654",
"; c #AE4857",
": c #AF4A58",
"> c #B14E5C",
", c #B2505E",
"< c #B35260",
"1 c #B35361",
"2 c #B35461",
"3 c #B45562",
"4 c #B45663",
"5 c #B65A67",
"6 c #B75B68",
"7 c #B75D6A",
"8 c #B85E6B",
"9 c #B9616E",
"0 c #BA626E",
"q c #BB6672",
"w c #BC6773",
"e c #BD6975",
"r c #BF6E79",
"t c #C0707B",
"y c #C1737E",
"u c #C67E89",
"i c #CC8D96",
"p c #D39BA3",
"a c #D7A5AC",
"s c #D9A9B0",
"d c #DFB7BD",
"f c #E3C1C6",
"g c #E5C5CA",
"h c #EBD3D7",
"j c #F2E2E4",
"k c #F8F0F1",
"l c #FEFEFE",
"z c None",
/* pixels */
"zzzzzzzzzzzzzzzzzzzzzzzzzzzzzzzzzzzzzzzzzzzzzzzzzzzzzzzzzzzzzzzzzzzzzzzzzzzzzzzzzzzzzzzzzzzzzzzzzzzzzzzzzzzzzzzzzzzzzzzzzzzzzzzzz",
"zzzzzzzzzzzzzzzzzzzzzzzzzzzzzzzzzzzzzzzzzzzzzzzzzzzzzzzzzzzz8<wwwwww<8zzzzzzzzzzzzzzzzzzzzzzzzzzzzzzzzzzzzzzzzzzzzzzzzzzzzzzzzzzz",
"zzzzzzzzzzzzzzzzzzzzzzzzzzzzzzzzzzzzzzzzzzzzzzzzzzzzz9:&                  &:9zzzzzzzzzzzzzzzzzzzzzzzzzzzzzzzzzzzzzzzzzzzzzzzzzzzz",
"zzzzzzzzzzzzzzzzzzzzzzzzzzzzzzzzzzzzzzzzzzzzzzzze3+                            +3ezzzzzzzzzzzzzzzzzzzzzzzzzzzzzzzzzzzzzzzzzzzzzzz",
"zzzzzzzzzzzzzzzzzzzzzzzzzzzzzzzzzzzzzzzzzzzzzr$                                    $qzzzzzzzzzzzzzzzzzzzzzzzzzzzzzzzzzzzzzzzzzzzz",
"zzzzzzzzzzzzzzzzzzzzzzzzzzzzzzzzzzzzzzzzzzq$                                          $yzzzzzzzzzzzzzzzzzzzzzzzzzzzzzzzzzzzzzzzzz",
"zzzzzzzzzzzzzzzzzzzzzzzzzzzzzzzzzzzzzzzz3                                                3zzzzzzzzzzzzzzzzzzzzzzzzzzzzzzzzzzzzzzz",
"zzzzzzzzzzzzzzzzzzzzzzzzzzzzzzzzzzzzzz=                                                    =zzzzzzzzzzzzzzzzzzzzzzzzzzzzzzzzzzzzz",
"zzzzzzzzzzzzzzzzzzzzzzzzzzzzzzzzzzzz;                                                        ;zzzzzzzzzzzzzzzzzzzzzzzzzzzzzzzzzzz",
"zzzzzzzzzzzzzzzzzzzzzzzzzzzzzzzzzz=                                                            =zzzzzzzzzzzzzzzzzzzzzzzzzzzzzzzzz",
"zzzzzzzzzzzzzzzzzzzzzzzzzzzzzzzz6                                                                6zzzzzzzzzzzzzzzzzzzzzzzzzzzzzzz",
"zzzzzzzzzzzzzzzzzzzzzzzzzzzzzzzX                                                                  @zzzzzzzzzzzzzzzzzzzzzzzzzzzzzz",
"zzzzzzzzzzzzzzzzzzzzzzzzzzzzz:                                                                      3zzzzzzzzzzzzzzzzzzzzzzzzzzzz",
"zzzzzzzzzzzzzzzzzzzzzzzzzzzz.                                                                        +zzzzzzzzzzzzzzzzzzzzzzzzzzz",
"zzzzzzzzzzzzzzzzzzzzzzzzzz5                                                                            qzzzzzzzzzzzzzzzzzzzzzzzzz",
"zzzzzzzzzzzzzzzzzzzzzzzzz>                                                                              5zzzzzzzzzzzzzzzzzzzzzzzz",
"zzzzzzzzzzzzzzzzzzzzzzzz*                                                                                *zzzzzzzzzzzzzzzzzzzzzzz",
"zzzzzzzzzzzzzzzzzzzzzzz.                                                                                  .zzzzzzzzzzzzzzzzzzzzzz",
"zzzzzzzzzzzzzzzzzzzzzzX                                                                                    Xzzzzzzzzzzzzzzzzzzzzz",
"zzzzzzzzzzzzzzzzzzzzzX                                                                                      Xzzzzzzzzzzzzzzzzzzzz",
"zzzzzzzzzzzzzzzzzzzzX                                                                                        Xzzzzzzzzzzzzzzzzzzz",
"zzzzzzzzzzzzzzzzzzzX                                                           #iiiiiiiiiiiiiiiiiiiiiiiiiiiiiiazzzzzzzzzzzzzzzzzz",
"zzzzzzzzzzzzzzzzzzX                                                           tlllllllllllllllllllllllllllllllllzzzzzzzzzzzzzzzzz",
"zzzzzzzzzzzzzzzzz.                                                           -lllllllllllllllllllllllllllllllllllzzzzzzzzzzzzzzzz",
"zzzzzzzzzzzzzzzz$                                                            gllllllllllllllllllllllllllllllllllllzzzzzzzzzzzzzzz",
"zzzzzzzzzzzzzzz3                                                            2llllllllllllllllllllllllllllllllllllllzzzzzzzzzzzzzz",
"zzzzzzzzzzzzzze                                                             gllllllllllllllllllllllllllllllllllllllzzzzzzzzzzzzzz",
"zzzzzzzzzzzzzzX                                                            2llllllllllllllllllllllllllllllllllllllllzzzzzzzzzzzzz",
"zzzzzzzzzzzzz&                                                             hlllllllllllllllllllllllllllllllllllllllllzzzzzzzzzzzz",
"zzzzzzzzzzzz9                                                             tllllllllllllllllllllllllllllllllllllllllllzzzzzzzzzzzz",
"zzzzzzzzzzzz                                                              jlllllllllllllllllllllllllllllllllllllllllllzzzzzzzzzzz",
"zzzzzzzzzzz&                                                             tlllllllllllllllllllllllllllllllllllllllllllllzzzzzzzzzz",
"zzzzzzzzzz7                                                             ojlllllllllllllllllllllllllllllllllllllllllllllzzzzzzzzzz",
"zzzzzzzzzzX                                                             illlllllllllllllllllllllllllllllllllllllllllllllzzzzzzzzz",
"zzzzzzzzzw                                                             okllllllllllllllllllllllllllllllllllllllllllllllllzzzzzzzz",
"zzzzzzzzz                                                              illlllllllllllllllllllllllllllllllllllllllllllllllzzzzzzzz",
"zzzzzzzz,                                                             okllllllllllllllllllllllllllllllllllllllllllllllllllzzzzzzz",
"zzzzzzzz                                                              pllllllllllllllllld#                               Xzzzzzzz",
"zzzzzzzw                                                             #llllllllllllllllld                                  9zzzzzz",
"zzzzzzzX                                                             slllllllllllllllll#                                  Xzzzzzz",
"zzzzzzy                                                             #llllllllllllllllls                                    ezzzzz",
"zzzzzz&                                                             sllllllllllllllllk#                                    $zzzzz",
"zzzzzz                                                             2llllllllllllllllli                                      zzzzz",
"zzzzz4                                                             gllllllllllllllllko                                      4zzzz",
"zzzzz+                                                            2llllllllllllllllli                                       +zzzz",
"zzzzz                                                             gllllllllllllllllko                                        zzzz",
"zzzz4                                                            0lllllllllllllllllt                                         9zzz",
"zzzz&                                                            jllllllllllllllllj                                          $zzz",
"zzzz                                                            tlllllllllllllllllt                                           zzz",
"zzzz                                                            jllllllllllllllllj                                            zzz",
"zzz6                                                           tlllllllllllllllll2                                            6zz",
"zzz;                                                          okllllllllllllllllg                                             -zz",
"zzz                                                           illlllllllllllllll2                                              zz",
"zzz                                                          okllllllllllllllllg                                               zz",
"zzz                                                          illlllllllllllllll2                                               zz",
"zz9                                                         oklllllllllllllllls                                                9z",
"zz,                                                         slllllllllllllllllt22222222222222                                  ,z",
"zz;                                iklllllllllllllllllllllllllllllllllllllllllllllllllllllllllp                                -z",
"zz&                               pllllllllllllllllllllllllllllllllllllllllllllllllllllllllllllp                               ;z",
"zz                               #llllllllllllllllllllllllllllllllllllllllllllllllllllllllllllll#                               z",
"zz                               2llllllllllllllllllllllllllllllllllllllllllllllllllllllllllllll2                               z",
"zz                               2llllllllllllllllllllllllllllllllllllllllllllllllllllllllllllll2                               z",
"zz                               2llllllllllllllllllllllllllllllllllllllllllllllllllllllllllllll2                               z",
"zz                               2llllllllllllllllllllllllllllllllllllllllllllllllllllllllllllll2                               z",
"zz                               2llllllllllllllllllllllllllllllllllllllllllllllllllllllllllllll2                               z",
"zz                               2llllllllllllllllllllllllllllllllllllllllllllllllllllllllllllll2                               z",
"zz                               2llllllllllllllllllllllllllllllllllllllllllllllllllllllllllllll2                               z",
"zz                               2llllllllllllllllllllllllllllllllllllllllllllllllllllllllllllll2                               z",
"zz                               2llllllllllllllllllllllllllllllllllllllllllllllllllllllllllllll2                               z",
"zz                               -llllllllllllllllllllllllllllllllllllllllllllllllllllllllllllll-                               z",
"zzO                               gllllllllllllllllllllllllllllllllllllllllllllllllllllllllllllg                               &z",
"zz;                               ogllllllllllllllllllllllllllllllllllllllllllllllllllllllllllgo                               ;z",
"zz:                                 -222222222222220llllllllllllllllld22222222222222222222222-                                 -z",
"zzw                                                plllllllllllllllll#                                                         wz",
"zz8                                               #llllllllllllllllls                                                          8z",
"zzz                                               slllllllllllllllll#                                                          zz",
"zzz                                              #lllllllllllllllllp                                                           zz",
"zzz&                                             dllllllllllllllllko                                                          &zz",
"zzz3                                            2llllllllllllllllli                                                           ,zz",
"zzze                                            gllllllllllllllllko                                                           ezz",
"zzzz                                           2llllllllllllllllli                                                            zzz",
"zzzz+                                          glllllllllllllllljo                                                           +zzz",
"zzzz6                                         0lllllllllllllllllt                                                            6zzz",
"zzzzz                                         jllllllllllllllllj                                                             zzzz",
"zzzzzX                                       tlllllllllllllllllt                                                            Xzzzz",
"zzzzz3                                       jllllllllllllllllj                                                             3zzzz",
"zzzzzz                                      ulllllllllllllllll2                                                             zzzzz",
"zzzzzz+                                    okllllllllllllllllg                                                             +zzzzz",
"zzzzzz5                                    illlllllllllllllll2                                                             5zzzzz",
"zzzzzzz                                   okllllllllllllllllg                                                              zzzzzz",
"zzzzzzz3                                  plllllllllllllllll-                                                             ,zzzzzz",
"zzzzzzzz                                 illllllllllllllllls                                                              zzzzzzz",
"zzzzzzzzfgggggggggggggggggggggggggggggggkllllllllllllllllll#                                                             5zzzzzzz",
"zzzzzzzzzllllllllllllllllllllllllllllllllllllllllllllllllls                                                              zzzzzzzz",
"zzzzzzzzzlllllllllllllllllllllllllllllllllllllllllllllllll#                                                             3zzzzzzzz",
"zzzzzzzzzzllllllllllllllllllllllllllllllllllllllllllllllli                                                              zzzzzzzzz",
"zzzzzzzzzzllllllllllllllllllllllllllllllllllllllllllllllko                                                             9zzzzzzzzz",
"zzzzzzzzzzzllllllllllllllllllllllllllllllllllllllllllllli                                                             +zzzzzzzzzz",
"zzzzzzzzzzzzlllllllllllllllllllllllllllllllllllllllllllko                                                             zzzzzzzzzzz",
"zzzzzzzzzzzzllllllllllllllllllllllllllllllllllllllllllli                                                             :zzzzzzzzzzz",
"zzzzzzzzzzzzzlllllllllllllllllllllllllllllllllllllllllj                                                             Xzzzzzzzzzzzz",
"zzzzzzzzzzzzzzllllllllllllllllllllllllllllllllllllllllt                                                             zzzzzzzzzzzzz",
"zzzzzzzzzzzzzzzllllllllllllllllllllllllllllllllllllllj                                                             4zzzzzzzzzzzzz",
"zzzzzzzzzzzzzzzllllllllllllllllllllllllllllllllllllllt                                                            -zzzzzzzzzzzzzz",
"zzzzzzzzzzzzzzzzllllllllllllllllllllllllllllllllllllg                                                            +zzzzzzzzzzzzzzz",
"zzzzzzzzzzzzzzzzzlllllllllllllllllllllllllllllllllll2                                                           Xzzzzzzzzzzzzzzzz",
"zzzzzzzzzzzzzzzzzzllllllllllllllllllllllllllllllllls                                                            zzzzzzzzzzzzzzzzz",
"zzzzzzzzzzzzzzzzzzzhgggggggggggggggggggggggggggggd0                                                            ezzzzzzzzzzzzzzzzz",
"zzzzzzzzzzzzzzzzzzzy                                                                                          yzzzzzzzzzzzzzzzzzz",
"zzzzzzzzzzzzzzzzzzzzy                                                                                        yzzzzzzzzzzzzzzzzzzz",
"zzzzzzzzzzzzzzzzzzzzzy                                                                                      yzzzzzzzzzzzzzzzzzzzz",
"zzzzzzzzzzzzzzzzzzzzzz8X                                                                                   8zzzzzzzzzzzzzzzzzzzzz",
"zzzzzzzzzzzzzzzzzzzzzzzzX                                                                                Xzzzzzzzzzzzzzzzzzzzzzzz",
"zzzzzzzzzzzzzzzzzzzzzzzzz*                                                                              *zzzzzzzzzzzzzzzzzzzzzzzz",
"zzzzzzzzzzzzzzzzzzzzzzzzzz5                                                                            >zzzzzzzzzzzzzzzzzzzzzzzzz",
"zzzzzzzzzzzzzzzzzzzzzzzzzzzqX                                                                         7zzzzzzzzzzzzzzzzzzzzzzzzzz",
"zzzzzzzzzzzzzzzzzzzzzzzzzzzzz&                                                                      &zzzzzzzzzzzzzzzzzzzzzzzzzzzz",
"zzzzzzzzzzzzzzzzzzzzzzzzzzzzzz9                                                                    9zzzzzzzzzzzzzzzzzzzzzzzzzzzzz",
"zzzzzzzzzzzzzzzzzzzzzzzzzzzzzzzz-                                                                -zzzzzzzzzzzzzzzzzzzzzzzzzzzzzzz",
"zzzzzzzzzzzzzzzzzzzzzzzzzzzzzzzzz8@                                                            @8zzzzzzzzzzzzzzzzzzzzzzzzzzzzzzzz",
"zzzzzzzzzzzzzzzzzzzzzzzzzzzzzzzzzzz5X                                                        X5zzzzzzzzzzzzzzzzzzzzzzzzzzzzzzzzzz",
"zzzzzzzzzzzzzzzzzzzzzzzzzzzzzzzzzzzzz5X                                                    X5zzzzzzzzzzzzzzzzzzzzzzzzzzzzzzzzzzzz",
"zzzzzzzzzzzzzzzzzzzzzzzzzzzzzzzzzzzzzzzyO                                                Oyzzzzzzzzzzzzzzzzzzzzzzzzzzzzzzzzzzzzzz",
"zzzzzzzzzzzzzzzzzzzzzzzzzzzzzzzzzzzzzzzzzz3X                                          X3zzzzzzzzzzzzzzzzzzzzzzzzzzzzzzzzzzzzzzzzz",
"zzzzzzzzzzzzzzzzzzzzzzzzzzzzzzzzzzzzzzzzzzzze>                                      >ezzzzzzzzzzzzzzzzzzzzzzzzzzzzzzzzzzzzzzzzzzz",
"zzzzzzzzzzzzzzzzzzzzzzzzzzzzzzzzzzzzzzzzzzzzzzzz6&                              &6zzzzzzzzzzzzzzzzzzzzzzzzzzzzzzzzzzzzzzzzzzzzzzz",
"zzzzzzzzzzzzzzzzzzzzzzzzzzzzzzzzzzzzzzzzzzzzzzzzzzzz9=O                    O=9zzzzzzzzzzzzzzzzzzzzzzzzzzzzzzzzzzzzzzzzzzzzzzzzzzz",
"zzzzzzzzzzzzzzzzzzzzzzzzzzzzzzzzzzzzzzzzzzzzzzzzzzzzzzzzzz1ww-%;;;;%-ww1zzzzzzzzzzzzzzzzzzzzzzzzzzzzzzzzzzzzzzzzzzzzzzzzzzzzzzzzz",
"zzzzzzzzzzzzzzzzzzzzzzzzzzzzzzzzzzzzzzzzzzzzzzzzzzzzzzzzzzzzzzzzzzzzzzzzzzzzzzzzzzzzzzzzzzzzzzzzzzzzzzzzzzzzzzzzzzzzzzzzzzzzzzzzz"
};
