/* XPM */
static char *result[] = {
/* columns rows colors chars-per-pixel */
"17 17 27 1 ",
"  c #9B1C2E",
". c #A02839",
"X c #A1293A",
"o c #A53444",
"O c #A73747",
"+ c #AA3F4E",
"@ c #AD4654",
"# c #AE4857",
"$ c #B35260",
"% c #B35461",
"& c #B45562",
"* c #B9616E",
"= c #BA626E",
"- c #BC6773",
"; c #C0707B",
": c #C1737E",
"> c #C67E89",
", c #CC8D96",
"< c #D1979F",
"1 c #D9A9B0",
"2 c #E5C5CA",
"3 c #EBD3D7",
"4 c #F2E2E4",
"5 c #F4E8EA",
"6 c #F8F0F1",
"7 c #FEFEFE",
"8 c None",
/* pixels */
"88888888888888888",
"88888-+   $:88888",
"888:.       +8888",
"88:       >,,<888",
"88       ;7777788",
"8$      X44%%%%88",
"8       ,7%    $8",
"8    %%%64%O   o8",
"8   %7777776    8",
"8   X,173,,=   .8",
"8     17%      $8",
"8#   @71       :8",
"8877777O      o88",
"885222>       888",
"888*        .8888",
"88888$    .&88888",
"88888888888888888"
};
