/* XPM */
<<<<<<< HEAD
static char *_95b9aa4f7f047ced5d9853dc2a99fed[] = {
/* columns rows colors chars-per-pixel */
"16 16 128 2 ",
"   c #094118",
".  c #094119",
"X  c #19CF38",
"o  c #1CC83E",
"O  c #1CCB3F",
"+  c #1BCE3C",
"@  c #1CCD3D",
"#  c #1AD03B",
"$  c #1BD03B",
"%  c #1AD73D",
"&  c #1CD43F",
"*  c #1BD83F",
"=  c #1FBD40",
"-  c #1FBF4F",
";  c #24AC4D",
":  c #20BA42",
">  c #20BF47",
",  c #24B34B",
"<  c #23B64A",
"1  c #23B74A",
"2  c #24B54A",
"3  c #24B34D",
"4  c #24B34E",
"5  c #21B74E",
"6  c #23B74E",
"7  c #23B74F",
"8  c #24B44C",
"9  c #24B64D",
"0  c #21BE49",
"q  c #21BF4B",
"w  c #22BB4D",
"e  c #23B94E",
"r  c #21BC4D",
"t  c #22BC4C",
"y  c #23BC4C",
"u  c #22BD4C",
"i  c #22BC4D",
"p  c #22BC4E",
"a  c #26AF50",
"s  c #2BA957",
"d  c #2AAB56",
"f  c #2BAA5A",
"g  c #29AC58",
"h  c #2BAC5A",
"j  c #2BAF5A",
"k  c #26B253",
"l  c #26B256",
"z  c #25B554",
"x  c #28B056",
"c  c #23B853",
"v  c #23BA53",
"b  c #23BB53",
"n  c #22BD50",
"m  c #23BD50",
"M  c #23BD51",
"N  c #22BF50",
"B  c #22BC52",
"V  c #23BC52",
"C  c #1EC542",
"Z  c #1FC046",
"A  c #1FC444",
"S  c #1DC840",
"D  c #1DC843",
"F  c #1DCB44",
"G  c #1EC947",
"H  c #1DCE45",
"J  c #1DCD47",
"K  c #1ECF46",
"L  c #1DC64B",
"P  c #1FC74B",
"I  c #1EC14D",
"U  c #1DC24D",
"Y  c #1FC44D",
"T  c #1DC64D",
"R  c #1BCA4B",
"E  c #1EC948",
"W  c #1DCA48",
"Q  c #1ECA48",
"!  c #1FCA48",
"~  c #1ECA49",
"^  c #1CC84B",
"/  c #1FC84B",
"(  c #1ECB4A",
")  c #18CE48",
"_  c #1DCD49",
"`  c #1FCC4B",
"'  c #1ECD4B",
"]  c #1ECF4A",
"[  c #1FC94C",
"{  c #1CD341",
"}  c #1CD143",
"|  c #1CD343",
" . c #1BD641",
".. c #1DD044",
"X. c #1DD045",
"o. c #1CD346",
"O. c #1CD646",
"+. c #1CD747",
"@. c #1CD841",
"#. c #1CD843",
"$. c #1CDB43",
"%. c #1BDC40",
"&. c #1CDC47",
"*. c #18D248",
"=. c #1DD148",
"-. c #1DD049",
";. c #1DD248",
":. c #1ED14C",
">. c #1BD44E",
",. c #20C246",
"<. c #21C04B",
"1. c #20C14D",
"2. c #20C44E",
"3. c #20C64F",
"4. c #21C350",
"5. c #26CC5A",
"6. c #27CD5B",
"7. c #27CF5B",
"8. c #23D255",
"9. c #26D75C",
"0. c #28D25E",
"q. c #28D35E",
"w. c #28D45D",
"e. c #28D45E",
"r. c #27D85D",
"t. c #1AE348",
"y. c #16EE4A",
"u. c None",
/* pixels */
"u.u.% %.%.$.O.X.;.;._ ` ! 2.3.u.",
"u.@.X # O O S D A Z q q <.p a >.",
"u.& # *  .X.{ X.X.! _ W <.7 7 u.",
"u.{ @ u.u.u.u.u.u.u.u.' 7 e u.u.",
"u.{ o u.u.u.u.u.u.u.F 8 w u.u.u.",
"u.K D &.+.t.u.u.u.F 7 p u.u.u.u.",
"u.K D = F u.u.u.! 8 p u.u.u.T W ",
"u.K = _ u.u.u.W 1 p u.u.u.^ s ) ",
"u.,.F u.u.u.W 1 q u.u.u.T k x u.",
"u.:.u.u.u.F 8 p u.u.u.<.d z l u.",
"u.u.u.u.[ , p u.u.u.u.*.u.<.g u.",
"u.u.u.3.4 y u.u.u.u.u.u.u.U f u.",
"u.u.T k m u.u.u.u.u.u.u.u.U h u.",
"u.8.; p 4.<.V V V b b c b c h y.",
"u.6 5.9.r.e.e.q.e.e.q.q.q.7.7.u.",
"u.u.u.u.u.u.. . . . . u.u.u.u.u."
=======
static char *bitcoin__[] = {
/* columns rows colors chars-per-pixel */
"16 16 159 2",
"   c #CA7C1E",
".  c #CB7D1E",
"X  c #D1811E",
"o  c #D0801F",
"O  c #D1801F",
"+  c #D3821F",
"@  c #D7831F",
"#  c #EE8D18",
"$  c #F4931F",
"%  c #D78625",
"&  c #D88520",
"*  c #D98521",
"=  c #D98620",
"-  c #D78B2D",
";  c #DF8D2A",
":  c #DF8F2F",
">  c #DF943B",
",  c #D8913C",
"<  c #D8923E",
"1  c #DF953E",
"2  c #E28B23",
"3  c #E38B23",
"4  c #EA9023",
"5  c #EB9023",
"6  c #ED9122",
"7  c #ED9123",
"8  c #EE9123",
"9  c #EE9223",
"0  c #F39421",
"q  c #F19423",
"w  c #F39523",
"e  c #F79521",
"r  c #F59422",
"t  c #F49623",
"y  c #F69622",
"u  c #F79623",
"i  c #F09324",
"p  c #F19424",
"a  c #F19525",
"s  c #F49624",
"d  c #F59625",
"f  c #F49725",
"g  c #F79624",
"h  c #F79724",
"j  c #F69725",
"k  c #F79725",
"l  c #F69726",
"z  c #F79726",
"x  c #F89621",
"c  c #F89722",
"v  c #F89723",
"b  c #F89724",
"n  c #F89824",
"m  c #F89825",
"M  c #F99825",
"N  c #F89925",
"B  c #F89926",
"V  c #F89927",
"C  c #F99927",
"Z  c #F0972E",
"A  c #F7992A",
"S  c #F79A2B",
"D  c #F79B2C",
"F  c #F69A2D",
"G  c #F79D2F",
"H  c #F89929",
"J  c #F89A28",
"K  c #F89A29",
"L  c #F99A29",
"P  c #F99B29",
"I  c #F89A2A",
"U  c #F89A2B",
"Y  c #F99B2B",
"T  c #F89B2C",
"R  c #F89C2C",
"E  c #F99C2D",
"W  c #F99C2E",
"Q  c #F89D2E",
"!  c #F99D2F",
"~  c #E29335",
"^  c #E49639",
"/  c #E2983F",
"(  c #F79F35",
")  c #F99E31",
"_  c #F89E32",
"`  c #F99E32",
"'  c #F9A033",
"]  c #F9A035",
"[  c #F9A135",
"{  c #F9A036",
"}  c #F9A136",
"|  c #F9A137",
" . c #F3A03F",
".. c #F7A43F",
"X. c #F8A139",
"o. c #F9A23A",
"O. c #FAA33B",
"+. c #FAA43E",
"@. c #FAA43F",
"#. c #EF9F41",
"$. c #EEA244",
"%. c #ECA34B",
"&. c #F8A440",
"*. c #F9A541",
"=. c #F9A644",
"-. c #F9A947",
";. c #F0A349",
":. c #F5A648",
">. c #F1A74E",
",. c #F7AA4F",
"<. c #E4A458",
"1. c #E4A55B",
"2. c #E8A95E",
"3. c #F2A950",
"4. c #F4AA52",
"5. c #FBAF55",
"6. c #E4A860",
"7. c #EAAC63",
"8. c #EBAF68",
"9. c #F2AF61",
"0. c #EBB16C",
"q. c #F6B568",
"w. c #E3AF71",
"e. c #EBBE89",
"r. c #E0BC93",
"t. c #E3C199",
"y. c #E6C59D",
"u. c #EAC89E",
"i. c #E7C8A2",
"p. c #EACBA6",
"a. c #EBCFAF",
"s. c #F1CCA0",
"d. c #E7CEB1",
"f. c #ECD1B0",
"g. c #E5D2BB",
"h. c #E8D2B8",
"j. c #DFDFDF",
"k. c #E7D5C1",
"l. c #E7D7C4",
"z. c #E5D7C7",
"x. c #E7DACB",
"c. c #EADAC8",
"v. c #E9DCCC",
"b. c #EDDFCE",
"n. c #E5DDD3",
"m. c #E4DFD9",
"M. c #ECE0D1",
"N. c #E4E1DD",
"B. c #EDE3D8",
"V. c #EAE4DD",
"C. c #ECE5DC",
"Z. c #E2E2E2",
"A. c #E5E2E0",
"S. c #E4E4E4",
"D. c #E7E7E7",
"F. c #EAEAE9",
"G. c gray92",
"H. c #EEEEEE",
"J. c None",
/* pixels */
"J.J.J.J.J.J.J.1 > J.J.J.J.J.J.J.",
"J.J.J.J.J./ ..| ' ( ~ J.J.J.J.J.",
"J.J.J.< *.{ V $ r U W _ - J.J.J.",
"J.J., o.J 0 # <.w.$.F N H % J.J.",
"J.J.o.T e 1.r.k.x.t.S z B u J.J.",
"J.^ [ Y ! #.z.H.M.n.0.d n m 2 J.",
"J.X.) | =. .h.B.5.f.j.;.v B d J.",
": Q M ` &.>.A.V.p.c.l.4.E n d = ",
"; I b A Z 2.D.s.u.F.a.-.} C w & ",
"J.l g y 6.m.G.q.3.b.Z.,.] D 8 J.",
"J.3 k c %.d.C.v.N.S.y.@.L a * J.",
"J.J.j z x 8.i.g.e.9.+.W t 6 J.J.",
"J.J.+ s h G :.7.O.R B s 7 . J.J.",
"J.J.J.O i f P L K d p 5   J.J.J.",
"J.J.J.J.J.@ 9 q i 4 + J.J.J.J.J.",
"J.J.J.J.J.J.J.X o J.J.J.J.J.J.J."
>>>>>>> bitcoin2/0.13
};
