/* XPM */
static char *_46602846c044143cd6d557bd3333eb4[] = {
/* columns rows colors chars-per-pixel */
"128 128 80 1 ",
"  c black",
". c #011E06",
"X c #011F08",
"o c #002106",
"O c #022209",
"+ c #00A220",
"@ c #02BA24",
"# c #04D12D",
"$ c #04DA2E",
"% c #1BCC3D",
"& c #07DD32",
"* c #09DB35",
"= c #0DDE3C",
"- c #1BD33E",
"; c #0AE337",
": c #03EB31",
"> c #0CE23C",
", c #0BE93B",
"< c #07F838",
"1 c #09FE3D",
"2 c #1FBE44",
"3 c #1FBF4D",
"4 c #25AD4F",
"5 c #23B347",
"6 c #20BC46",
"7 c #24B54E",
"8 c #21BD4D",
"9 c #26AE52",
"0 c #2AA956",
"q c #2AAA59",
"w c #25B453",
"e c #28B057",
"r c #23B951",
"t c #28B258",
"y c #11C344",
"u c #1EC545",
"i c #1DCB44",
"p c #1FC549",
"a c #1DCB4B",
"s c #0FDE40",
"d c #13D543",
"f c #1CD041",
"g c #12DD43",
"h c #1BDB44",
"j c #1CD14A",
"k c #1BDD4D",
"l c #1ECC50",
"z c #1DD551",
"x c #1ADC50",
"c c #20C046",
"v c #20C24B",
"b c #23C655",
"n c #23C955",
"m c #23D357",
"M c #0FE541",
"N c #0EE941",
"B c #11E244",
"V c #1BE547",
"C c #14E946",
"Z c #15E44B",
"A c #1CE34B",
"S c #15EB4B",
"D c #1BEB4B",
"F c #11F547",
"G c #10FE46",
"H c #15F04A",
"J c #18F34D",
"K c #11FF48",
"L c #1CE150",
"P c #17EC50",
"I c #19ED51",
"U c #17F052",
"Y c #1BF351",
"T c #1DF952",
"R c #19FA58",
"E c #20E357",
"W c #22E25C",
"Q c #1EFF64",
"! c #20FF61",
"~ c None",
/* pixels */
"~~~~~~~~~~~~~~~~~~~~~~~~~~~~~~~~~~~~~~~~~~~~~~~~~~~~~~~~~~~~~~~~~~~~~~~~~~~~~~~~~~~~~~~~~~~~~~~~~~~~~~~~~~~~~~~~~~~~~~~~~~~~~~~~",
"~~~~~~~~~~~~~~~~~~~~~~~~~~~~~~~~~~~~~~~~~~~~~~~~~~~~~~~~~~~~~~~~~~~~~~~~~~~~~~~~~~~~~~~~~~~~~~~~~~~~~~~~~~~~~~~~~~~~~~~~~~~~~~~~",
"~~~~~~~~~~~~~~~~~~~~~~~~~~~~~~~~~~~~~~~~~~~~~~~~~~~~~~~~~~~~~~~~~~~~~~~~~~~~~~~~~~~~~~~~~~~~~~~~~~~~~~~~~~~~~~~~~~~~~~~~~~~~~~~~",
"~~~~~~~~~~~~~~~~~~~~~~~~~~~~~~~~~~~~~~~~~~~~~~~~~~~~~~~~~~~~~~~~~~~~~~~~~~~~~~~~~~~~~~~~~~~~~~~~~~~~~~~~~~~~~~~~~~~~~~~~~~~~~~~~",
"~~~~~~~~~~~~~~~~~~~~~~~~~~~~~~~~~~~~~~~~~~~~~~~~~~~~~~~~~~~~~~~~~~~~~~~~~~~~~~~~~~~~~~~~~~~~~~~~~~~~~~~~~~~~~~~~~~~~~~~~~~~~~~~~",
"~~~~~~~~~~~~~~TTTTTTTTTTTTTTTTTTTYTYTYTYYTTYYYYYYYTYYTYYYYYTYTYYYYYYYYUUYYUJYYYUJJUYYDYYYUYPUIYUUIIIIIIISDIPPPPSPP~~~~~~~~~~~~~~",
"~~~~~~~~~~~TTTVVDDDDDDDVDDDDDDDDDDDDDDDDDDDADDDDDDVVDADAAAAADADAAAAALLVAALALALLLLLLELLLLkLkALkkkxAkkxxkkxxkxkxxxxkLS~~~~~~~~~~~~",
"~~~~~~~~~TTV-f%-f%%--%-%%-%%-%%f%%%%%%%%%%%i%i%c%iu%uuiiici%icccicicuuuucuccccc6c6c666c88686668668676888878787rr778lkP~~~~~~~~~~",
"~~~~~~~~TYf%---;-----------------f--%f-fd%fff%fii%fiiiiiiiiiiicaipuiipviipivivcanuuvuvpvcvvcvvvv8p3888c88888888r88r99lS~~~~~~~~~",
"~~~~~~~!D%%----------;----------f--fffff%ifffiffiifffifiiiiiiiiiiiipiiipipcaviicppuppppvavvavvvvp88pv8v8v88v3883888884lP~~~~~~~~",
"~~~~~~~Y-%---------;--------------f--fffffffffififfifiiiiiiiiiiiipuipiiippiivivauunpppvcvvvvvvvv3vp8b8v8v8v83r8888888r9jP~~~~~~~",
"~~~~~~TV%-----------------------d%---ff-f%fffifffiffiifiiiiiiiiiiiiuippipippivicuuupppupacvvvvvvvvv3v8vvrv8833b8br8r88rrZ~~~~~~~",
"~~~~~~Y-%-----------------------f--f-ffff-fffiffiiffiififiiiiiaciiiuipippippcivippppppppvvpvcacvvvv38v88vvvb88rv888rrvrwzS~~~~~~",
"~~~~~~D%--------;-V----;----h-----f--f-ffffffffiii-iifiiiiiiiiiipinipipippiiacivpupppvpvvcpvvvvvp8v38vvvvrrv888v8r888rrrpS~~~~~~",
"~~~~~~A%---------------V---------ff-fff-fffffffifi-fiiiiiiiiiiaiiuiipiipipipvivpppppuppppvvvvvvv38pvvv88vvrr388r888r888w3Z~~~~~~",
"~~~~~~D%--------;---------------f--f--f%ifff%iffifiififiiiiiiiiiuiiiiipipipcivippupppvipvpvpvvvvvvv88vv8rvvv88838888r3rwvZ~~~~~~",
"~~~~~~V%------------------------f-ff-fff--iffiffififiifiiiiiiiiiuiuiuniiacivivivivpppivvvvcvcvvv8vv8v88v8vv8rv8888rb88rwvS~~~~~~",
"~~~~~~E%--------------:-------------%ff-i-fffffififiifiiiiiiiiiiiiiiiiuuivvivicaivpppvivvvavvvvvpvvvbvvvv883vrv88r8r8r8wlS~~~~~~",
"~~~~~~Vf-------------------------ff-ff-f-fi-fffiifi%fiiiiiiiciiauiuuiiiuiiviicavvvipvvvvacvpvvvv8pv888vr88888br3888r88rwZ~~~~~~~",
"~~~~~~V%-------------------------f--ffffif-i%iff-iifiifiiiiiiiiciiinnuuuaciccaciivvvvivvvvvvvvvv8vvv8vv88v3r33vr88888r9lS~~~~~~~",
"~~~~~~W%-f-----------------------%fff-f--i-i-ifiii-ifiiiiiiiiiiiiiciiuuuiviacaviipppicavvvvvvv8pp8p8v8v8vvrv8388r88r8wvS~~~~~~~~",
"~~~~~~V%--f------------------------ff-iii-iii-fifiiiiiiiiiiiiiiicifiiiiuicviivicvvpvvvcvcpvvvvp88pvvv88vrvvr88rvr888w8C~~~~~~~~~",
"~~~~~~Vf---f------------%%-%%----%%%%%%%%%i%%i%%%u%uu%uuuuiuuuccccccc6uccccccccccccc68cc868vvpvpvv8vvvvv83888v88b8rw8C~~~~~~~~~~",
"~~~~~~Vfff---f---------VVVVVVVVVVVAVVAVVVVVVVVAkAVVVVAhVVAAAhAVAVAAAhAALAkkhkAkkkkhkkkkkkkj8p8p8v8vv8v88883b888888w8D~~~~~~~~~~~",
"~~~~~~E%f--f-f-f-------DV~~~~~~~~~~~~~~~~~~~~~~~~~~~~~~~~~~~~~~~~~~~~~~~~~~~~~~~~~~~~~~~~JHc8pvvv3vvrvrvrv8vrv88v98C~~~~~~~~~~~~",
"~~~~~~V%f-f-%%-f-f----%D~~~~~~~~~~~~~~~~~~~~~~~~~~~~~~~~~~~~~~~~~~~~~~~~~~~~~~~~~~~~~~~~~Hj8pvvvvv8vvv8vvvvr8888w8S~~~~~~~~~~~~~",
"~~~~~~Viff---f--f--f-f-V~~~~~~~~~~~~~~~~~~~~~~~~~~~~~~~~~~~~~~~~~~~~~~~~~~~~~~~~~~~~~~~~Pj6vvvvvvv8vvvvrvr88br3wvS~~~~~~~~~~~~~~",
"~~~~~~E%-f-%--f--ff----D~~~~~~~~~~~~~~~~~~~~~~~~~~~~~~~~~~~~~~~~~~~~~~~~~~~~~~~~~~~~~~~Pj7vvvvvv3vv8vrvv8v8833w3S~~~~~~~~~~~~~~~",
"~~~~~~Efffff%ff-f--f--%V~~~~~~~~~~~~~~~~~~~~~~~~~~~~~~~~~~~~~~~~~~~~~~~~~~~~~~~~~~~~~~Pj6cvvvvvvv8v8vbr8v8883wvC~~~~~~~~~~~~~~~~",
"~~~~~~V%ffff-ff-fff-ff%V~~~~~~~~~~~~~~~~~~~~~~~~~~~~~~~~~~~~~~~~~~~~~~~~~~~~~~~~~~~~~Hj6vvvvvvcvvvvv8v8vc88v78S~~~~~~~~~~~~~~~~~",
"~~~~~~Viff-fff-fffffffiT~~~~~~~~~~~~~~~~~~~~~~~~~~~~~~~~~~~~~~~~~~~~~~~~~~~~~~~~~~~~Hj7vvvvvvvvvv8v8v88v383wvS~~~~~~~~~~~~~~~~~~",
"~~~~~~V%ffff-f-%ff-ffffT~~~~~~~~~~~~~~~~~~~~~~~~~~~~~~~~~~~~~~~~~~~~~~~~~~~~~~~~~~~Hj6cvvvvvvvvvvvv8v8v888wpS~~~~~~~~~~~~~~~~~~~",
"~~~~~~Ecfffffffffffff%%D~~~~~~~~~~~~~~~~~~~~~~~~~~~~~~~~~~~~~~~~~~~~~~~~~~~~~~~~~~Hj6vcvvpvvv3pvv88vb88v87pS~~~~~~~~~~~~~~~~~~~~",
"~~~~~~Viffff%ffff%-fff%D~~~~~~~~~~~~~~~~~~~~~~~~~~~~~~~~~~~~~~~~~~~~~~~~~~~~~~~~~Hj6cavvvvvvvp88vvv8888vwpZ~~~~~~~~~~~~~~~~~~~~~",
"~~~~~~V%ffffffffffffff%D~~~~~~~~~~~~~~~~~~~~~~~~~~~~~~~~~~~~~~~~~~~~~~~~~~~~~~~~Hj6vvvvvvvpvvv8p8vvvv8vwpZ~~~~~~~~~~~~~~~~~~~~~~",
"~~~~~~V%fffff%ffffffffiV~~~~~~~~~~~~~~~~~~~~~~~~~~~~~~~~~~~~~~~~~~~~~~~~~~~~~~~Hj6vcavavvv8pvvvvv88v8vwvS~~~~~~~~~~~~~~~~~~~~~~~",
"~~~~~~Vcifffffiffff%f%fD~~~~~~~~~~~~~~~~~~~~~~~~~~~~~~~~~~~~~~~~~~~~~~~~~~~~~~Hj6vvvvvvvvpvvp8p38vvv878C~~~~~~~~~~~~~~~~~~~~~~~~",
"~~~~~~ViffififffiffifiiV~~~~~~~~~~~~~~~~~~~~~~~~~~~~~~~~~~~~~~~~~~~~~~~~~~~~~Jj8vcavvvvpp8vv8p8pv8vvwlC~~~~~~~~~~~~~~~~~~~~~~~~~",
"~~~~~~W%iffiif%fffifffiV~~~~~~~~~~~~~~~~~~~~~~~~~~~~~~~~~~~~~~~~~~~~~~~~~~~~Jf6vvvvvvcvvp8vvp8vvv8v7vC~~~~~~~~~~~~~~~~~~~~~~~~~~",
"~~~~~~Vcf%fiffifff%ffifV~~~~~~~~~~~~~~~~~~~~~~~~~~~~~~~~~~~~~~~~~~~~~~~~~~~Hj6vvcivvpvvvvpp88vv8bvwvC~~~~~~~~~~~~~~~~~~~~~~~~~~~",
"~~~~~~V%iffififiifiifiiV~~~~~~~~~~~~~~~~~~~~~~~~~~~~~~~~~~~~~~~~~~~~~~~~~~Jj6vivavivvvvvvvv8p8vv88vC~~~~~~~~~~~~~~~~~~~~~~~~~~~~",
"~~~~~~V%fiififf%ii-if%iD~~~~~~~~~~~~~~~~~~~~~~~~~~~~~~~~~~~~~~~~~~~~~~~~~Jf6pvvpcvvvvvcvp88p3p887cC~~~~~~~~~~~~~~~~~~~~~~~~~~~~~",
"~~~~~~VciifffififiiiiifA~~~~~~~~~~~~~~~~~~~~~~~~~~~~~~~~~~~~~~~~~~~~~~~~Df6pppppavvpvpvvvpvvvvvrcD~~~~~~~~~~~~~~~~~~~~~~~~~~~~~~",
"~~~~~~Viifiiififfffffi%DT~~~~~~~~~~~~~~~~~~~~D~~~~~~~~~~~~~~~~~~~~~~~~~Hj8ppppvpcvpvpvvvvp8vv8rvC~~~~~~~~~~~~~~~~~~~~~~~~~~~~~~~",
"~~~~~~EciiifiiifiiffififVVhAAVAkAhAAVVhVVkhDDD~~~~~~~~~~~~~~~~~~~~~~~~Hj7uppppuvppvpvvvvvv83c8vC~~~~~~~~~~~~~~~~~~~~~~~~~B~~~~~~",
"~~~~~~Vcffiiifiifiiiiii%uiuiiiu%u%u%uuuiu2iH~~~~~~~~~~~~~~~~~~~~~~~~~Hj6upppppvvppvvvvvvp8pv7nC~~~~~~~~~~~~~~~~~~~~~~~~~Bg~~~~~~",
"~~~~~~V%iifiiffifiiiifiiiififiiiiiuiiiii%iJ~~~~~~~~~~~~~~~~~~~~~~~~~Hf6pupppppvvpppvvvvvvvvrvC~~~~~~~~~~~~~~~~~~~~~~~~~Zjg~~~~~~",
"~~~~~~VciiiiiiiiiiffiiiififiiiiiiifiiiiuiH~~~~~~~~~~~~~~~~~~~~~~~~~Hj8upuunvuvppvvpvvvvvvcrvC~~~~~~~~~~~~~~~~~~~~~~~~~NvwB~~~~~~",
"~~~~~~Eciiiiiiiiiiiiiifiiiiifiiiiiiiii2fJ~~~~~~~~~~~~~~~~~~~~~~~~~Hj6viivvvppicvvacvvvcvv7vC~~~~~~~~~~~~~~~~~~~~~~~~~Nl08B~~~~~~",
"~~~~~~VciiiiiiifiiifiiiiiiiiiiiiiiiiiufH~~~~~~~~~~~~~~~~~~~~~~~~~Hjcvivvcavivvvvvvvvvv8v8vC~~~~~~~~~~~~~~~~~~~~~~~~~Ml998M~~~~~~",
"~~~~~~VciuiiiiiifiiiiiiiiiiiiiiiiiiuufJ~~~~~~~~~~~~~~~~~~~~~~~~~Hj6pvvavvvvvvvvvvvvvvvc8vC~~~~~~~~~~~~~~~~~~~~~~~~~Nl9rw8B~~~~~~",
"~~~~~~VciiiiiiiiiiiiifiiiiiiiiiiiiiuiJ~~~~~~~~~~~~~~~~~~~~~~~~~Hi8ipivciivuvavcavvvvvv8vC~~~~~~~~~~~~~~~~~~~~~~~~~Nawr8w8B~~~~~~",
"~~~~~~EciiiiiiiiiiiiiiiiciiiiiiiiiufJ~~~~~~~~~~~~~~~~~~~~~~~~~Hj8iacacvvppppcvvvvvvvc8vC~~~~~~~~~~~~~~~~~~~~~~~~~Na9rrrw8B~~~~~~",
"~~~~~~VuiiiiiiuiiiiiiiiiiiiiiiiaiuiJ~~~~~~~~~~~~~~~~~~~~~~~~~Hjcivcccavipppvvvpvvvvv7aC~~~~~~~~~~~~~~~~~~~~~~~~~Na9r8rrwrB~~~~~~",
"~~~~~~AcuiiniiiiiiiiiiiiiiiiiciiuiJ~~~~~~~~~~~~~~~~~~~~~~~~~Hjcvvppaavcvppvpppvvvvv8vC~~~~~~~~~~~~~~~~~~~~~~~~~Nl9rrrrrwvZ~~~~~~",
"~~~~~~VciiiiuiiiuuiniiiiiiaiiiicjJ~~~~~~~~~~~~~~~~~~~~~~~~~Hj6vicpaccvacppvpvcvvvv6vC~~~~~~~~~~~~~~~~~~~~~~~~~Na4rrrrrrw3B~~~~~~",
"~~~~~~Ecuiuiuiiiiuiiuiiiiiuiii6fJ~~~~~~~~~~~~~~~~~~~~~~~~~Hj6cacppppppppvvnucucbc7vC~~~~~~~~~~~~~~~~~~~~~~~~~Na9rrrrrrrw3g~~~~~~",
"~~~~~~AciiiiiiiuiiiiiiiniuiiicfY~~~~~~~~~~~~~~~~~~~~~~~~~Hj6accapppvppppvvvvvvvv8cC~~~~~~~~~~~~~~~~~~~~~~~~~Na9r8rrrrrrw8g~~~~~~",
"~~~~~~VuiiuiniipiiniiiiuiiiucfY~~~~~~~~~~~~~~~~~~~~~~~~~Hj6aivvippuppppppvvubcv7lC~~~~~~~~~~~~~~~~~~~~~~~~~Nl9r3rr3rrrrt8B~~~~~~",
"~~~~~~AcuuiuiuiiuuiuuiuuuuicfY~~~~~~~~~~~~~~~~~~~~~~~~~Hi8iccavvppvucbvvvvvvvp8uC~~~~~~~~~~~~~~~~~~~~~~~~~Na9r8rrrrrrrrw8B~~~~~~",
"~~~~~~hciniuiuuiiiiniiiiinciT~~~~~~~~~~~~~~~~~~~~~~~~~Hjcvivviivppvupvvpvvvvv7pD~~~~~~~~~~~~~~~~~~~~~~~~~Naw8r8rrr8rrrrw3g~~~~~~",
"~~~~~~VciuiniiiiiuuiuiiiiciY~~~~~~~~~~~~~~~~~~~~~~~~~Hj6cacavvvcppvvpvpvvvvv7uC~~~~~~~~~~~~~~~~~~~~~~~~~Na9rrrrrrrrrrrwwrB~~~~~~",
"~~~~~~EcuuiuuiuunuiiuuiuciJ~~~~~~~~~~~~~~~~~~~~~~~~~Hj6vcavcacaaunvvvvcivvv8aD~~~~~~~~~~~~~~~~~~~~~~~~~Nawbrr8rrrrrrrrrwrN~~~~~~",
"~~~~~~EciuuiuniuiuuuuinciT~~~~~~~~~~~~~~~~~~~~~~~~~Hj6viaccacvcvuvvuvvvvvv6cC~~~~~~~~~~~~~~~~~~~~~~~~~Na9r38rrr8rrrrrrwt3g~~~~~~",
"~~~~~~AcpiippiiiipipiicjU~~~~~~~~~~~~~~~~~~~~~~~~~Jj8upvppppppppvvvvvvvvv8aC~~~~~~~~~~~~~~~~~~~~~~~~~Naw8rrrr8rrrrrrrrrwbs~~~~~~",
"~~~~~~AcippiippppipipciJ~~~~~~~~~~~~~~~~~~~~~~~~~Dj6uppppppppvpcucvvvvvv7aC~~~~~~~~~~~~~~~~~~~~~~~~~Np98rrvrrrrrrrrrrrwt3s~~~~~~",
"~~~~~~L6ppipppipipup6jY~~~~~~~~~~~~~~~~~~~~~~~~~Jj6vvupppvppvpvvvvvncvv6pC~~~~~~~~~~~~~~~~~~~~~~~~~Naw8rr88r8rrrrrrrtrrrrs~~~~~~",
"~~~~~~Acippupipiipu6jJ~~~~~~~~~~~~~~~~~~~~~~~~~Jfcpppvpppuppppvaupcuvv8cD~~~~~~~~~~~~~~~~~~~~~~~~~Nj9rr8r8rrrrrrrrrrrrrw3s~~~~~~",
"~~~~~~L6pipivivppa6iJ~~~~~~~~~~~~~~~~~~~~~~~~~Hi8ppppvppvcvpcvvccvvvv8aC~~~~~~~~~~~~~~~~~~~~~~~~~Naw8r8rr8rrbrrrrrrrrrrw3s~~~~~~",
"~~~~~~L6ppinivicu6jJ~~~~~~~~~~~~~~~~~~~~~~~~~Hj8cpppuupcppvvavvvvvvv8vD~~~~~~~~~~~~~~~~~~~~~~~~~Naw888r8r8rrrrrrrrrrrrrtrg~~~~~~",
"~~~~~~Acpuuupiac6jY~~~~~~~~~~~~~~~~~~~~~~~~~Jj6iivpvnuvuvuvvvvvvvvv8vD~~~~~~~~~~~~~~~~~~~~~~~~~Na98rr88rrrrrrrrrwrrrrrtw3g~~~~~~",
"~~~~~~Acnvupvic6aY~~~~~~~~~~~~~~~~~~~~~~~~~Jj6vvvvviuvvvvunvvvvvvv8vD~~~~~~~~~~~~~~~~~~~~~~~~~Na98r8rr8rrr8rrrrrrrrwrrrt3M~~~~~~",
"~~~~~~L6vivviv6aY~~~~~~~~~~~~~~~~~~~~~~~~~Jj7cacvvppvvvvvvvvvvvvv6vC~~~~~~~~~~~~~~~~~~~~~~~~~Npw88r8r8rrrrrrrrrwrrrrrrrwrs~~~~~~",
"~~~~~~L6ivvic6jU~~~~~~~~~~~~~~~~~~~~~~~~~Jj6cvcvcpvppvunvvacvvvv7aC~~~~~~~~~~~~~~~~~~~~~~~~~Njw888rr8rr3rrrrrrrrrrwrwrrw3s~~~~~~",
"~~~~~~k6ivvv6jI~~~~~~~~~~~~~~~~~~~~~~~~~Jj8uvvvvpppvvvucvvvvvvv6vD~~~~~~~~~~~~~~~~~~~~~~~~~Npwr88r8r8rrrrrrrrrrrrrrwrrrw3s~~~~~~",
"~~~~~~L6vvi6jY~~~~~~~~~~~~~~~~~~~~~~~~~Hi8cvivacpvpppvvcvvvvvv8vC~~~~~~~~~~~~~~~~~~~~~~~~~Npw8brrr8rrr8rrr8rrwrrrrrwrrrtrs~~~~~~",
"~~~~~~L6cv8aY~~~~~~~~~~~~~~~~~~~~~~~~~Hj6nuvvvuuvvvvvvvvvvvvv6vC~~~~~~~~~~~~~~~~~~~~~~~~~Na988rvrvvrrrbrrrrrrrrwrrrrrrwr8=~~~~~~",
"~~~~~~k6c6jU~~~~~~~~~~~~~~~~~~~~~~~~~Hj6vvcuvvcnvpvvvvpvvvvv8pC~~~~~~~~~~~~~~~~~~~~~~~~~Njw8r8rrrrrr8rrrrrrrrwrwwrrrrrrt8=~~~~~~",
"~~~~~~k76aU~~~~~~~~~~~~~~~~~~~~~~~~~Dj6vvvunvuvvvvpvvvvvvvvrcC~~~~~~~~~~~~~~~~~~~~~~~~~Naw888rr8rr8rrrrrrrrrrrwrrwwrrrrw8s~~~~~~",
"~~~~~~L5aY~~~~~~~~~~~~~~~~~~~~~~~~~Hj7vvvcuvvvvuvvvvvvvvvc8vC~~~~~~~~~~~~~~~~~~~~~~~~~Naw888rr8r8rrrrrrrrrrrrrrrrrrrrrwt3=~~~~~~",
"~~~~~~zvY~~~~~~~~~~~~~~~~~~~~~~~~~Hj8cvvvvvvvvvvpvvvvvp8p7pC~~~~~~~~~~~~~~~~~~~~~~~~~Nj988r8r8r8rrrrrrrrrrrwrwwrwwrrrrrt3s~~~~~~",
"~~~~~~AI~~~~~~~~~~~~~~~~~~~~~~~~~Ha8vvcvvpcvvvpvvvvvp88v7lC~~~~~~~~~~~~~~~~~~~~~~~~~Npe8r8rrrrrrrrrrrrwrrrrrrrrrrrwrrrrt3s~~~~~~",
"~~~~~EI~~~~~~~~~~~~~~~~~~~~~~~~~Jj6vvvpvvvvcvvvvpvp83vvrlC~~~~~~~~~~~~~~~~~~~~~~~~~Bper8rtrrrrrwrrrwrrwwwrrrwrrrrwrrtrrrrs~~~~~~",
"~~~~~DE~~~~~~~~~~~~~~~~~~~~~~~~Cj7cvvp8vvvvlpvvv8p8vvvrpC~~~~~~~~~~~~~~~~~~~~~~~~~BBgghggggghgggggdgdggdrwrrwrrrrrrrrrrw3s~~~~~~",
"~~~~~~~~~~~~~~~~~~~~~~~~~~~~~~Pj7cvvvvvvvvvvv8pvv8vvv8pC~~~~~~~~~~~~~~~~~~~~~~~~~~~~~~~~~~~~~~~~~~~~~~~N3trrrrrrrrrrtrrt8=~~~~~~",
"~~~~~~~~~~~~~~~~~~~~~~~~~~~~~Hj8vvvvvvvvvvvv8pp8vvvv7vZ~~~~~~~~~~~~~~~~~~~~~~~~~~~~~~~~~~~~~~~~~~~~~~~~B3trrrrwrrrrrrrrw3=~~~~~~",
"~~~~~~~~~~~~~~~~~~~~~~~~~~~~Hj7vvvvcvvvp3vv3vv8pv8vrvC~~~~~~~~~~~~~~~~~~~~~~~~~~~~~~~~~~~~~~~~~~~~~~~~~sytrrrrrrrrrrrrtwr=~~~~~~",
"~~~~~~~~~~~~~~~~~~~~~~~~~~~Hl88cvvv8vvp8vvvv38p8vv7vC~~~~~~~~~~~~~~~~~~~~~~~~~~~~~~~~~~~~~~~~~~~~~~~~~~srtrrrwrwrwrrrrrt3=~~~~~~",
"~~~~~~~~~~~~~~~~~~~~~~~~~~Pj788vvvvvv8vv3vv8vvv8c7vC~~~~~~~~~~~~~~~~~~~~~~~~~~~~~~~~~~~~~~~~~~~~~~~~~~~M3trrrrrrwrrrrrrt3=~~~~~~",
"~~~~~~~~~~~~~~~~~~~~~~~~~Pj7pvvvvv8vvvvvv8v8v8vv7nC~~~~~~~~~~~~~~~~~~~~~~~~~~~~~~~~~~~~~~~~~~~~~~~~~~~~s3errrrwrrrrwrrrw3=~~~~~~",
"~~~~~~~~~~~~~~~~~~~~~~~~Hj7pp8vvv8v8v8v8v8vvv8b9vC~~~~~~~~~~~~~~~~~~~~~~~~~~~~~~~~~~~~~~~~~~~~~~~~~~~~~>3wrwrrrrrrrrrrrt3*~~~~~~",
"~~~~~~~~~~~~~~~~~~~~~~~Hj73vv3v88vvv8v8v8vv8vvrvC~~~~~~~~~~~~~~~~~~~~~~~~~~~~~~~~~~~~~~~~~~~~~~~~~~~~~~>btrrrrrwrrrrwrrwr=~~~~~~",
"~~~~~~~~~~~~~~~~~~~~~~Pj48v8v8vvvv8v88vv8v8v8wvC~~~~~~~~~~~~~~~~~~~~~~~~~~~~~~~~~~~~~~~~~~~~~~~~~~~~~~~>rtrrrrrrrrrrrrrw8*~~~~~~",
"~~~~~~~~~~~~~~~~~~~~~Ij7vvvv8vv8v88v8bv8v8vv7vC~~~~~~~~~~~~~~~~~~~~~~~~~~~~~~~~~~~~~~~~~~~~~~~~~~~~~~~~>ytrrwrwwrrrrrrww3=~~~~~~",
"~~~~~~~~~~~~~~~~~~~~Hjwvv88v8vv8vvvr8vv88887vC~~~~~~~~~~~~~~~~~~~~~~~~~~~~~~~~~~~~~~~~~~~~~~~~~~~~~~~~~>3trrrrrrrrtrrwwt8=~~~~~~",
"~~~~~~~~~~~~~~~~~~~Uj98v8vv8v888brvv8v8v8v7nC~~~~~~~~~~~~~~~~~~~~~~~~~~~~~~~~~~~~~~~~~~~~~~~~~~~~~~~~~~=3trwrrrtrrrrrw3t3*~~~~~~",
"~~~~~~~~~~~~~~~~~~Hlw388v8vvrrvvrvvrvv88vwpZ~~~~~~~~~~~~~~~~~~~~~~~~~~~~~~~~~~~~~~~~~~~~~~~~~~~~~~~~~~~>3trrwrrrtrrrrrrtyd~~~~~~",
"~~~~~~~~~~~~~~~~~Pa7vvv88vrvvvv8v88vvr387vC~~~~~~~~~~~~~~~~~~~~~~~~~~~~~~~~~~~~~~~~~~~~~~~~~~~~~~~~~~~~=3wrrrrrrrrrrrrrtrs~~~~~~",
"~~~~~~~~~~~~~~~~Hjr8vr8v8rv8rvrvv883r33wvC~~~~~~~~~~~~~~~~~~~~~~~~~~~~~~~~~~~~~~~~~~~~~~~~~~~~~~~~~~~~~>3wrrrrrrrrtrrrrwrs~~~~~~",
"~~~~~~~~~~~~~~~Hl488v88v8v8vv8vr8888vbwpZ~~~~~~~~~~~~~~~~~~~~~~~~~~~~~~~~~~~~~~~~~~~~~~~~~~~~~~~~~~~~~~>3qrrrrtrrrrrrrrwys~~~~~~",
"~~~~~~~~~~~~~~Pa4vvb338r88rvv88888888rvC~~~~~~~~~~~~~~~~~~~~~~~~~~~~~~~~~~~~~~~~~~~~~~~~~~~~~~~~~~~~~~~>3trrrrrrrwrrwrrt3=~~~~~~",
"~~~~~~~~~~~~~Plw88r83r38b8v8rv3b388vrvZ~~~~~~~~~~~~~~~~~~~~~~~~~~~~~~~~~~~~~~~~~~~~~~~~~~~~~~~~~~~~~~~~=3rrrtrrrrrrrrrrw3*~~~~~~",
"~~~~~~~~~~~~Hlr8v83v83883388883rr83rpZ~~~~~~~~~~~~~~~~~~~~~~~~~~~~~~~~~~~~~~~~~~~~~~~~~~~~~~~~~~~~~~~~~>3ttrrrrrrrrwrrrt3*~~~~~~",
"~~~~~~~~~~~Paw88888r8888r33r8383888rjFCSSSSCCSCCCSBNCNCBNNCBNBMBNB,BMNB>NBN>MMBs>MM>M>>>M>>>=MMs>>>;>;;;3trrrrrrwrrrrwrtr*~~~~~~",
"~~~~~~~~~~Ul9v88888b88rvr8r88rvrrvrr8jjaaaaaaaaaaaapaaaaaaaaaalalpaaaaaaylaylayllpayllppy3yllylypapyaya3wrrrrrrtrrrrrrrw3*~~~~~~",
"~~~~~~~~~Ul78888888r88br88vrrv8b88b8rwww9rwrwwrr7rwrwwwwwww9wwwwwww9w999wteeeeee9wtt9et9ttttttttwwttttetrwwrrrrrrrtrrrrw3*~~~~~~",
"~~~~~~~~Ia488rrv888888vr88rv88r88rr8888888r8888rrrr3r88r3r3rr8rr8rrrrrrrrrrrrwrrwrwrrrrrrrrrwrrrrrwrrrrrrrrrwrrrrrrwrwrt3*~~~~~~",
"~~~~~~~Il98r8rbr8rr88rrvr88rr8r88r88r8r88r88rrr888rrr8r8rr3rrr8rrrrrrrrrrwrrrrrrrrrrwrrrrrrrwrrrrrwrrrwrrrrrrrrrrrrrrrrw3*~~~~~~",
"~~~~~~~kw8888r88rr88r88r8rrv8r888r88r8vrr8r88r8rr83rr88rrrrrrrrrrrrrrrrrrrrrrrrrrrrrrrrwrrrttrrrrwrrrrrrwrwrrrrwwrrrrrrw3*~~~~~~",
"~~~~~~Iv788888r8888r88r8rvrr888r8r8r8rrr8r8rr8r83rrrrrrrrrr3rrrrrrrrrrrwrrwrrtrrrrrwrrrrwrrrrrrrrrrwrwwrrrrrrrrrrrrrrrww3*~~~~~~",
"~~~~~~krr8rrrr8r88rr8r88brvrrrrrr3brrrr3r8r8rr8rrr3r3rr8rrrrrrr8rrrrrrrrrrrrrrrrrwrrwrrrrrrtrrrrrrrrrrwrrrwwwrrrtrrrrwwwr*~~~~~~",
"~~~~~~zwrr8r8rr8rrrbr8rr8rrr88r8rr3rrvr8rr8r3rr8rrrrrrrr3wrrrrrrrrrrrwrrtrrrwrrrrrwrrrwrrrrrrrrrrwrrrrrrrrrrrrrwwrrrrrrw3*~~~~~~",
"~~~~~~zrvrrrr88r8r8r8r88rr8r88r8rr88rrrr8r8rrr8rrr3rrrrrrrrrrrrwrrrrrrwrrrrrrwrrrrrrrrrwrrrwtrrrrwrrrrrrrrwrwrrwrrrrrrwtv*~~~~~~",
"~~~~~~z4rr88rrr8r8r8r8rrr8r88rrr8rrrr8rrrr8rrrrrrrrrrrrrrrrrrrrrwrwrrwrrrwwrrrrrrwrwrrrrrrrrrrrrrrrrrwrrrrrrrrrrrrrrrrrt3&~~~~~~",
"~~~~~~xrrr8r8r8rr8r88r8r8rrrr88rr88rrrrrrrrrrrrrrrrrrrrrrrwrwrrrrwrrrrwrrrwrrrrtrrrrwrrrrrrrrrrrrrrwrrwrwrrrrrrrrrrrwrrty$~~~~~~",
"~~~~~~Urrrrrrrrrrrrrrrrrrrr8rrrrrrrrrrrvbrrrrrrrrrrrrrwrrrrrrrrrrrrrrrrrrrrrrrrrrrwrrrrwrrrrrwrrtrrrrwrrrrrwrrrrwtrrrrrqd~~~~~~~",
"~~~~~~RW9rrr8rrrrrr8rrr8rrrrrrrbrr8r8rrrrrrrrrrrrrrrrrrrrwrrrrwrrrwrrrrrwrrrrrrrrrrrrrrwrrrrwrrwrrrrrrwrrrrrrrrwrrrrrrt8<~~~~~~~",
"~~~~~~~Qn48rrrr8rrr8rrr8rrr3rrrrrrrrrrrrrrrrrrrrrrrrrrrwrrrrrrrrrwrrwrrrrrrrrrrrrrwrwrrrtrrrwrrrrrrrrrrrtrrrwrrrrwrwrtqK#~~~~~~~",
"~~~~~~~~Qv9r8rrrr8rrrrrrrrrrw3rr8r8rrrrrrrrrrrrrrrrrrrrrwrwrrrwrrrrrrrwrrrrrrrrtrrrrrrrrrrwrrrrrrrrrwwrrrrrwrrrrrwrrtqU:~~~~~~~~",
"~~~~~~~~~Qm99ww9rwwwwrww9rwwrwrwwwwwwwwwwwrwwwwwwwwtwwwrwwtrwwwwwwwwrtwwwtwwwwwttwwwtwwwtrrtwwwwtrttrtrtrwtrrtwwwrtqrK:~~~~~~~~~",
"~~~~~~~~~~U!WmbbbbbbbbnnbnbbbnnnnbbbbbbbbbbbbbbbnnnbbbbbnbnbbnbnnbbnbbnbbbnnbbbbbbbbbbbbbbbbbbbbbbnbbnvbbbvbbbnvblzY1@~~~~~~~~~~",
"~~~~~~~~~~~~yxIUIIIISIIILSPSZLZZZZZZZZZZZZBZZBZZZZgZZBBBBgZggBBggBgssBssssggssss==s=B=======>==>ss>>>==>>>>>>>>>>=#+~~~~~~~~~~~~",
"~~~~~~~~~~~~~~~~~~~~~~~~~~~~OOOOOOOOOOOOOOOXXXXXXXXXXXXX.X.XXXXXX.......OXXX.....o...oooooooooooOoooo~~~~~~~~~~~~~~~~~~~~~~~~~~~",
"~~~~~~~~~~~~~~~~~~~~~~~~~~~~~~~~~~~~~~~~                                                 ~~~~~~~~~~~~~~~~~~~~~~~~~~~~~~~~~~~~~~~",
"~~~~~~~~~~~~~~~~~~~~~~~~~~~~~~~~~~~~~~~~~~~~~~~~~~~~~~~~~~~~~~~~~~~~~~~~~~~~~~~~~~~~~~~~~~~~~~~~~~~~~~~~~~~~~~~~~~~~~~~~~~~~~~~~",
"~~~~~~~~~~~~~~~~~~~~~~~~~~~~~~~~~~~~~~~~~~~~~~~~~~~~~~~~~~~~~~~~~~~~~~~~~~~~~~~~~~~~~~~~~~~~~~~~~~~~~~~~~~~~~~~~~~~~~~~~~~~~~~~~",
"~~~~~~~~~~~~~~~~~~~~~~~~~~~~~~~~~~~~~~~~~~~~~~~~~~~~~~~~~~~~~~~~~~~~~~~~~~~~~~~~~~~~~~~~~~~~~~~~~~~~~~~~~~~~~~~~~~~~~~~~~~~~~~~~",
"~~~~~~~~~~~~~~~~~~~~~~~~~~~~~~~~~~~~~~~~~~~~~~~~~~~~~~~~~~~~~~~~~~~~~~~~~~~~~~~~~~~~~~~~~~~~~~~~~~~~~~~~~~~~~~~~~~~~~~~~~~~~~~~~"
};
