/* XPM */
static char *_d954954fe734a57c7adc944ee1bbacf[] = {
/* columns rows colors chars-per-pixel */
"128 128 78 1 ",
"  c black",
". c #025213",
"X c #005911",
"o c #055519",
"O c #065B1C",
"+ c #006012",
"@ c #007115",
"# c #0E9F34",
"$ c #10B43C",
"% c #03C92A",
"& c #04DD2E",
"* c #1BCD3D",
"= c #05D830",
"- c #09DA36",
"; c #0DDD3C",
": c #1BD33E",
"> c #09E436",
", c #0DE23E",
"< c #0CE93B",
"1 c #0CF63E",
"2 c #06FF39",
"3 c #11BA40",
"4 c #1FBE4E",
"5 c #20BE47",
"6 c #23B64F",
"7 c #21BD4D",
"8 c #26AE53",
"9 c #29AC59",
"0 c #25B653",
"q c #28B257",
"w c #23B951",
"e c #28B158",
"r c #12C442",
"t c #1EC645",
"y c #16CB44",
"u c #1DCB44",
"i c #1FC449",
"p c #17CF48",
"a c #1DCC4B",
"s c #0FDD40",
"d c #16D045",
"f c #1CD141",
"g c #14DB45",
"h c #1ADB44",
"j c #17D348",
"k c #1AD449",
"l c #17DE48",
"z c #1ADC4C",
"x c #1CD550",
"c c #1BDA50",
"v c #20C147",
"b c #20C24B",
"n c #23C053",
"m c #23CB55",
"M c #20DA56",
"N c #0FE842",
"B c #12E144",
"V c #1CE347",
"C c #12ED46",
"Z c #15E54B",
"A c #1AE44B",
"S c #15ED4B",
"D c #19EC4C",
"F c #12F146",
"G c #11FF47",
"H c #15F04A",
"J c #1AF24D",
"K c #1AE450",
"L c #17EC50",
"P c #1AED51",
"I c #1BF352",
"U c #1EF955",
"Y c #1DF758",
"T c #1EFA5B",
"R c #23F85F",
"E c #1FFF62",
"W c #20FF63",
"Q c None",
/* pixels */
"QQQQQQQQQQQQQQQQQQQQQQQQQQQQQQQQQQQQQQQQQQQQQQQQQQQQQQQQQQQQQQQQQQQQQQQQQQQQQQQQQQQQQQQQQQQQQQQQQQQQQQQQQQQQQQQQQQQQQQQQQQQQQQQQ",
"QQQQQQQQQQQQQQQQQQQQQQQQQQQQQQQQQQQQQQQQQQQQQQQQQQQQQQQQQQQQQQQQQQQQQQQQQQQQQQQQQQQQQQQQQQQQQQQQQQQQQQQQQQQQQQQQQQQQQQQQQQQQQQQQ",
"QQQQQQQQQQQQQQQQQQQQQQQQQQQQQQQQQQQQQQQQQQQQQQQQQQQQQQQQQQQQQQQQQQQQQQQQQQQQQQQQQQQQQQQQQQQQQQQQQQQQQQQQQQQQQQQQQQQQQQQQQQQQQQQQ",
"QQQQQQQQQQQQQQQQQQQQQQQQQQQQQQQQQQQQQQQQQQQQQQQQQQQQQQQQQQQQQQQQQQQQQQQQQQQQQQQQQQQQQQQQQQQQQQQQQQQQQQQQQQQQQQQQQQQQQQQQQQQQQQQQ",
"QQQQQQQQQQQQQQQQQQQQQQQQQQQQQQQQQQQQQQQQQQQQQQQQQQQQQQQQQQQQQQQQQQQQQQQQQQQQQQQQQQQQQQQQQQQQQQQQQQQQQQQQQQQQQQQQQQQQQQQQQQQQQQQQ",
"QQQQQQQQQQQQQQQQQQQQQQQQQQQQQQQQQQQQQQQQQQQQQQQQQQQQQQQQQQQQQQQQQQQQQQQQQQQQQQQQQQQQQQQQQQQQQQQQQQQQQQQQQQQQQQQQQQQQQQQQQQQQQQQQ",
"QQQQQQQQQQQQRUJUUUUJUUJUUUUJJUUUJUIIIIIIIUIIUIIUUIUIIIIIUIIUIIIIIUIIIIIIIPIIIIPPIIPIPPIJPPPJPPPPLPKPPDPPKLKKPKLKPKLQQQQQQQQQQQQQ",
"QQQQQQQQQQUUVV:>hh:Vhhhh:hhhhhhfh:hhhhhhhffhfhfhfffhfzfffkffkfkffafaafafaaaafaaaaaaaaaaaaaaaiaaaaaaaamabamaaaaaiiaxcLQQQQQQQQQQQ",
"QQQQQQQQQUVf:::::&:::&:::*::*:*****:******u*****uu*uuuuttttttuvvtuttttttvvvvvvvvvvbvv7v57b5v577b66747767776666466000aZDQQQQQQQQQ",
"QQQQQQQQUh*::::::::::::::::::::::f*f:fu:uf*fuuufuuuuuuuu*f**uuuuuutttttttuituiiitbvbavbvvbbbbbbbvbv4b7577775n774777w8wcZQQQQQQQQ",
"QQQQQQQUh*::::::::::::::::::::::::f::f*f*f*fu*fuuu*ffuuutfuuuututuuuutttuttttitiavvvvibabbbbvbbi7ibb7bb77b7774477777700ZQQQQQQQQ",
"QQQQQQUD*:::::::::::::::::::::::f::::fff*ffffff*uuffuufuftftuuuuutttautttaavtttatvaabviibbbbbbbbibi7bbn777b74nw777777604DQQQQQQQ",
"QQQQQQU:*::::::::::::::::::::::::f:f:*ffffff*ffu**uuufuuutuuuutututumututtttaiitvbtbbbvbbibibbbb7ii47b7bb7b77777777777w0cQQQQQQQ",
"QQQQQQI::::::::::::>:<:::::::::::f:::*:ff**ffuuf*uf*uufuuuuuuuuauuutututttatttaiatavvvavibbbbibbi7nib7bbbn77n774777wnw70aDQQQQQQ",
"QQQQQQA*::::::::::::::::::::::::::::*fff*fffffffufuufuuuuufuuuuuutmuuatauatttttiavtbavbabbabbbbb47i7bb77777747777n7ww7704ZQQQQQQ",
"QQQQQQA*:::*::::::::::::::::::::f*ff::ffff*f*uf*fufu*ffuu*uutuutuuuututtttutmitivvavabvavbbbbbbbbbb47bb77bb77b777w7777w04ZQQQQQQ",
"QQQQQQV*::::::::::>:<:::::::::::f:f**:fff:*f*ffufufu*uuuuuuuuuuutuuuttttuiitiuttbtiiiiibbibbbbbbi7i7bbb77i77747777w777004ZQQQQQQ",
"QQQQQQVf::::::::::::::::::::::::*:::*fffff*fuffuuf*uufufuuuuuubuuttuuttuttuiiibttmiiiiibibbibbbbibbb77bb4n7b777777w77w70aZQQQQQQ",
"QQQQQQVf::::::::::::::::::::::::f:::::fff*fufuufuffuufuuuuuuuuuututututmiatattiattiivtibbibibbbb7ib7bn777b777w44nwn77770cQQQQQQQ",
"QQQQQQVu::::::::::::::::::::::::::fffff*ffff*ffufuufuuuuuuuuuuuvuuumttuuuittatiittiitmbtibibibbbi7bb7bbbb7b4n4n77777w704ZQQQQQQQ",
"QQQQQQVf:::::::::::::::::::::::::f:f*:fff*fuf**fuufu*uuuufauuuuuuututumuattitvatbtbbtiiibbbbbbi77bn47bb77i777747777w7w0lQQQQQQQQ",
"QQQQQQVf:f:::::::::::::::::::::::f:*fffffff*ufuff*uuuuuuuuuuuuuumtutututiuiutavvtatvbiibbbbbbbiii4ivbb7n7n77777777w760jDQQQQQQQQ",
"QQQQQQV*f:f:::::::::::::::::::::f:*f**f*uf*u*uuuuuuuuutuiuituvvvuvtbtbvvivvvvvvvb55b55bb757ibbb74i7bb777n7747b7777n70zDQQQQQQQQQ",
"QQQQQQVf::f:f::::::::::::::::V:::fhfhf:ff:fhfhfffhfffkffkffffkkffffaffuffaafaaaauaaaaaaaaab7ibbiini77bb7ib774n777ww0kCQQQQQQQQQQ",
"QQQQQQVf::::f:*:::::::*VVVRUURUVIJJJJJIJJJJIJIJIJDIDJDIDJJJDDHJDIJJVIVJIDDJDJDDDIJVDDDDDDSZi4bbb7ib7bn7bi7477777766zSQQQQQQQQQQQ",
"QQQQQQVf*:f:f*:f::f:::*JQQQQQQQQQQQQQQQQQQQQQQQQQQQQQQQQQQQQQQQQQQQQQQQQQQQQQQQQQQQQQQQQQJA57ibbi7b77bb7n777747b60kSQQQQQQQQQQQQ",
"QQQQQQVf*:::::::*ff::f:VQQQQQQQQQQQQQQQQQQQQQQQQQQQQQQQQQQQQQQQQQQQQQQQQQQQQQQQQQQQQQQQQHz74bb4i7b7b7b7bb77in776wzSQQQQQQQQQQQQQ",
"QQQQQQVufff*:ff:f:::::*JQQQQQQQQQQQQQQQQQQQQQQQQQQQQQQQQQQQQQQQQQQQQQQQQQQQQQQQQQQQQQQQHA55ibbb7i4i7bb777777476wkSQQQQQQQQQQQQQQ",
"QQQQQQVuff*f*f:*:::ff:*VQQQQQQQQQQQQQQQQQQQQQQQQQQQQQQQQQQQQQQQQQQQQQQQQQQQQQQQQQQQQQQDA75bbbbiinbbbnb777774b66zSQQQQQQQQQQQQQQQ",
"QQQQQQVf*f:f:::f:ff::f*VQQQQQQQQQQQQQQQQQQQQQQQQQQQQQQQQQQQQQQQQQQQQQQQQQQQQQQQQQQQQQJV75bbbibniib77b77bb77nw6kCQQQQQQQQQQQQQQQQ",
"QQQQQQVufffff::fffff:**VQQQQQQQQQQQQQQQQQQQQQQQQQQQQQQQQQQQQQQQQQQQQQQQQQQQQQQQQQQQQDV7bbbbibbbb7ibb77b774i66zSQQQQQQQQQQQQQQQQQ",
"QQQQQQVu*fffff*ff:*ffffRQQQQQQQQQQQQQQQQQQQQQQQQQQQQQQQQQQQQQQQQQQQQQQQQQQQQQQQQQQQJVb7vbbbbbbbbi77bbi7n7iwwkCQQQQQQQQQQQQQQQQQQ",
"QQQQQQMfffff**fffff*ff*DQQQQQQQQQQQQQQQQQQQQQQQQQQQQQQQQQQQQQQQQQQQQQQQQQQQQQQQQQQSAvbiibbi7bb4i477bbb7b766zCQQQQQQQQQQQQQQQQQQQ",
"QQQQQQVfuff*fffffu:*f**VQQQQQQQQQQQQQQQQQQQQQQQQQQQQQQQQQQQQQQQQQQQQQQQQQQQQQQQQQSAvbibbbbbibbb7bbbn77n756kFQQQQQQQQQQQQQQQQQQQQ",
"QQQQQQV*ffff*f*ff*fff**DQQQQQQQQQQQQQQQQQQQQQQQQQQQQQQQQQQQQQQQQQQQQQQQQQQQQQQQQHAvvbbbiibbbbi7i77bb7bb66zSQQQQQQQQQQQQQQQQQQQQQ",
"QQQQQQVufu*fff*ff*f**fuDQQQQQQQQQQQQQQQQQQQQQQQQQQQQQQQQQQQQQQQQQQQQQQQQQQQQQQQSA5bibbibbbi7i7i4i7b7bb76zCQQQQQQQQQQQQQQQQQQQQQQ",
"QQQQQQVu*fffu*fffffffffVQQQQQQQQQQQQQQQQQQQQQQQQQQQQQQQQQQQQQQQQQQQQQQQQQQQQQQJAi5ivbbbbbbibii7ibbbb767zCQQQQQQQQQQQQQQQQQQQQQQQ",
"QQQQQQVuffuufffuuf*ffu*DQQQQQQQQQQQQQQQQQQQQQQQQQQQQQQQQQQQQQQQQQQQQQQQQQQQQQSZ54iibibbbbbbb7i4n77bb7wzCQQQQQQQQQQQQQQQQQQQQQQQQ",
"QQQQQQMuu*f*fu*ffuuf*uuVQQQQQQQQQQQQQQQQQQQQQQQQQQQQQQQQQQQQQQQQQQQQQQQQQQQQHAi7iibbvbiii7bbi7b7b7b66zCQQQQQQQQQQQQQQQQQQQQQQQQQ",
"QQQQQQVffufu*ffu*ff*ff*VQQQQQQQQQQQQQQQQQQQQQQQQQQQQQQQQQQQQQQQQQQQQQQQQQQQJAv5iiibibi7inibb7ibbbb65zCQQQQQQQQQQQQQQQQQQQQQQQQQQ",
"QQQQQQVuuf*ufuf*f*ff*uuVQQQQQQQQQQQQQQQQQQQQQQQQQQQQQQQQQQQQQQQQQQQQQQQQQQJZ5viiiiibbibbbbi7i77bn76hSQQQQQQQQQQQQQQQQQQQQQQQQQQQ",
"QQQQQQVufufuuffuuuuufuuDQQQQQQQQQQQQQQQQQQQQQQQQQQQQQQQQQQQQQQQQQQQQQQQQQHV5viiiibbiibbbbi7ii4bb77zCQQQQQQQQQQQQQQQQQQQQQQQQQQQQ",
"QQQQQQVtuufffu*uufuuff*VQQQQQQQQQQQQQQQQQQQQQQQQQQQQQQQQQQQQQQQQQQQQQQQQHVvbiiiiiiibibbbi77ini777zCQQQQQQQQQQQQQQQQQQQQQQQQQQQQQ",
"QQQQQQVtu*uuufuff*ufufuDQQQQQQQQQQQQQQQQQQQQQQQQQQQQQQQQQQQQQQQQQQQQQQQJVvbtiiiibbbiibbbi7i7i476hCQQQQQQQQQQQQQQQQQQQQQQQQQQQQQQ",
"QQQQQQMuufufuuuuu*fuu*uVIJDJJDJJIDDDJDDDDDDDJJQQQQQQQQQQQQQQQQQQQQQQQQHVbvbbtbabbbbibbbbi7iib65zCQQQQQQQQQQQQQQQQQQQQQQQQlQQQQQQ",
"QQQQQQVuuu*uufuffufuuuuuuffuufufufffufuffuuVJQQQQQQQQQQQQQQQQQQQQQQQQJlibuavbbvtbbabbbbb7i7i76zCQQQQQQQQQQQQQQQQQQQQQQQQBBQQQQQQ",
"QQQQQQVvuuuuuuufuuuuuuuuuuuu*uuutuuuv*uuvvVJQQQQQQQQQQQQQQQQQQQQQQQQCAi5iiiiavvbbbibbbbbbbi65zCQQQQQQQQQQQQQQQQQQQQQQQQNggQQQQQQ",
"QQQQQQV*uuufuuuufuu**u*uuuuuuuuu*uuuuuuu*VJQQQQQQQQQQQQQQQQQQQQQQQQJA5iiiiiivbbbabibbbbb4i75zCQQQQQQQQQQQQQQQQQQQQQQQQCj4lQQQQQQ",
"QQQQQQMuuuuuufuufuuuuuuuuuuufuuuuuuuuuvuDJQQQQQQQQQQQQQQQQQQQQQQQQHVvvbiiiibiibbbibbbbbbb77zCQQQQQQQQQQQQQQQQQQQQQQQQNg8wBQQQQQQ",
"QQQQQQVtuuuuuuuuuuuuufuuuuuuuuuuuuuuuuuVJQQQQQQQQQQQQQQQQQQQQQQQQJlivuiiiiiiiibibbbbbbbb77gCQQQQQQQQQQQQQQQQQQQQQQQQNg08igQQQQQQ",
"QQQQQQVvuuuuuuuuuuuuuufuuuuuuuuuuuuutuVJQQQQQQQQQQQQQQQQQQQQQQQQCAi5biiiiiiiiiibbbbbbbb77lCQQQQQQQQQQQQQQQQQQQQQQQQNg000nBQQQQQQ",
"QQQQQQVtuuuuuuuuuufuuuuuuuauuuuuuuuv*DJQQQQQQQQQQQQQQQQQQQQQQQQJAviiuibiiiibbbbibbbbbbb7hCQQQQQQQQQQQQQQQQQQQQQQQQNg00004gQQQQQQ",
"QQQQQQMuuuuuuuuuuuuuuuuuvuuuuuuuutttAJQQQQQQQQQQQQQQQQQQQQQQQQJA5vubbiiiabvbabbbvbbbv77lSQQQQQQQQQQQQQQQQQQQQQQQQNg00ww0igQQQQQQ",
"QQQQQQVtuuuuuuumuuuuuuuuuuuuuuuuu*tDJQQQQQQQQQQQQQQQQQQQQQQQQCAvviiiiiiivtbabbbbbbbb77hCQQQQQQQQQQQQQQQQQQQQQQQQNg00www04BQQQQQQ",
"QQQQQQVvutuuuuuuutuuuuuuuuuuuvuuvtDHQQQQQQQQQQQQQQQQQQQQQQQQJVvbiubiiiiibbbbbbbvbbb57hCQQQQQQQQQQQQQQQQQQQQQQQQNk00wwww0nsQQQQQQ",
"QQQQQQVtttutuuuuuuutuuuauuuuuuuuuVJQQQQQQQQQQQQQQQQQQQQQQQQCZ5vuiiiiiiiitbvbbabbbb77lCQQQQQQQQQQQQQQQQQQQQQQQQNg004w6w70nBQQQQQQ",
"QQQQQQVtuttutuuuuuatttuuuuumuuvvDJQQQQQQQQQQQQQQQQQQQQQQQQHVbvuiiiiibavbabbtbbbbv77lCQQQQQQQQQQQQQQQQQQQQQQQQNg00wwwwww04sQQQQQQ",
"QQQQQQMuuutuututiuuuuutuutuuutuVHQQQQQQQQQQQQQQQQQQQQQQQQJZ5vibiiiivvvbavbbbbbba77lCQQQQQQQQQQQQQQQQQQQQQQQQNl004w4wwwwqnBQQQQQQ",
"QQQQQQVvtuuttuuttuuutumutuuuvuDJQQQQQQQQQQQQQQQQQQQQQQQQHA5ibiuiiivbavbvvvmbvvb75lCQQQQQQQQQQQQQQQQQQQQQQQQNgw07wwwwwww0wsQQQQQQ",
"QQQQQQMvutuuutuuuiutuuuuuuuvvDJQQQQQQQQQQQQQQQQQQQQQQQQFlvviubbiiiavbbbbbbvbbv77lCQQQQQQQQQQQQQQQQQQQQQQQQNk0067wwwwwww04sQQQQQQ",
"QQQQQQVvmututuuutttutuutttttVUQQQQQQQQQQQQQQQQQQQQQQQQJlvvbiiiiiiiiibbbabbbbb77hFQQQQQQQQQQQQQQQQQQQQQQQQNg007707wwwwwwq4BQQQQQQ",
"QQQQQQVttuuuttmutataauututvVJQQQQQQQQQQQQQQQQQQQQQQQQJliviuiiiiiiibabavbbbvbnbhHQQQQQQQQQQQQQQQQQQQQQQQQNkw07ww7wwwwwww04gQQQQQQ",
"QQQQQQMvttumtattuuautuatttIIQQQQQQQQQQQQQQQQQQQQQQQQHZ55iiuiibiibvvbibbibvv77VCQQQQQQQQQQQQQQQQQQQQQQQQNgw0w07wwwwww0w0q4sQQQQQQ",
"QQQQQQVvtttuuttutttttttttVIQQQQQQQQQQQQQQQQQQQQQQQQJV5iiiibbiiiivabbbbibbi77lCQQQQQQQQQQQQQQQQQQQQQQQQNkw0w7407ww7wwwww0nsQQQQQQ",
"QQQQQQAviuiuuuuiuttitttiDJQQQQQQQQQQQQQQQQQQQQQQQQJVvbuibbbbbiiiabbbbbbbbb7VCQQQQQQQQQQQQQQQQQQQQQQQQNg00w77ww40ww70www04sQQQQQQ",
"QQQQQQcviiuiiiiuiuiputiZJQQQQQQQQQQQQQQQQQQQQQQQQCVbbibiiubuiiibbbbvbbbb7bhCQQQQQQQQQQQQQQQQQQQQQQQQNg6w4wwwwnwwwwww0w004sQQQQQQ",
"QQQQQQAvuiiuiuuiuittiiDIQQQQQQQQQQQQQQQQQQQQQQQQJgvvubiiiiibiibibbabbbb57lCQQQQQQQQQQQQQQQQQQQQQQQQBh00707w7w400www0www0nsQQQQQQ",
"QQQQQQVvuiiuiiiiuititVJQQQQQQQQQQQQQQQQQQQQQQQQHAvbiiiiibiiiibibbvbbvb77lCQQQQQQQQQQQQQQQQQQQQQQQQNg00777w7n4007wwww0ww04sQQQQQQ",
"QQQQQQcviiuiuviuiu5vKJQQQQQQQQQQQQQQQQQQQQQQQQJAiviiubbiiibiibiibbbbbb7VCQQQQQQQQQQQQQQQQQQQQQQQQ<g06w7w7wwwwwwwwwwwwwwqwsQQQQQQ",
"QQQQQQcviuuibuuiu5vDJQQQQQQQQQQQQQQQQQQQQQQQQJgv5iiibbbviiibbbbbbvbv77hCQQQQQQQQQQQQQQQQQQQQQQQQNg0w77w7w7wwwwwwwwwwwww0nsQQQQQQ",
"QQQQQQcvbabiubiiviKJQQQQQQQQQQQQQQQQQQQQQQQQJlvbiiiiavavbabibbbbabvn7hCQQQQQQQQQQQQQQQQQQQQQQQQNg0w77w70wwwnwwww0w0wwwwq4sQQQQQQ",
"QQQQQQAvtuiiibu5iKIQQQQQQQQQQQQQQQQQQQQQQQQJAvviiiiivbvbbbibibbbbb77VCQQQQQQQQQQQQQQQQQQQQQQQQNg00nww7077wwwwwwwwwwwqwwq4sQQQQQQ",
"QQQQQQcviiiuviviVIQQQQQQQQQQQQQQQQQQQQQQQQHl5viiiiiiibibibbbbbbbv77lCQQQQQQQQQQQQQQQQQQQQQQQQNkw77wwww47wwwwwwwwww00w0w04sQQQQQQ",
"QQQQQQcviiiiiviDJQQQQQQQQQQQQQQQQQQQQQQQQHA5bbiiiiibbiibbvbbbibb77lCQQQQQQQQQQQQQQQQQQQQQQQQNgw07ww77wwwwwwwww0w0w00www04sQQQQQQ",
"QQQQQQA5iuiivvPPQQQQQQQQQQQQQQQQQQQQQQQQDz5bbiiivbbbibbibbbibbb77VCQQQQQQQQQQQQQQQQQQQQQQQQNg0w77w7w7wwwwwwwwwwwwwwww0wq4sQQQQQQ",
"QQQQQQc7iii5vDPQQQQQQQQQQQQQQQQQQQQQQQQHV5bvbbibbbbbbibbbbbibbb7hCQQQQQQQQQQQQQQQQQQQQQQQQNg0wn7w77ww4wwww7w0www0w0wwww04sQQQQQQ",
"QQQQQQcvii5iPPQQQQQQQQQQQQQQQQQQQQQQQQHlbbvababbbbbiibbbbibib55lCQQQQQQQQQQQQQQQQQQQQQQQQBg0w7ww7ww70nw7wwwwww0wwwww0ww07;QQQQQQ",
"QQQQQQcbi55KPQQQQQQQQQQQQQQQQQQQQQQQQJl5vbbbbbvbbbabbbbbbbbn67lCQQQQQQQQQQQQQQQQQQQQQQQQNg0777w7w74wwwwwwwwww0wwwwwwwwwq4sQQQQQQ",
"QQQQQQV74iPIQQQQQQQQQQQQQQQQQQQQQQQQHz75mvbbbvabbbbbbibbbbb55ACQQQQQQQQQQQQQQQQQQQQQQQQNh0677w77707w4700wwww0wwwwwwwnw007sQQQQQQ",
"QQQQQQc55PPQQQQQQQQQQQQQQQQQQQQQQQQHV7vbvvvabbvbbbbbbbbbbv76lCQQQQQQQQQQQQQQQQQQQQQQQQ,g0ww7w70707700w047wwww00ww0ww00004;QQQQQQ",
"QQQQQQM7KIQQQQQQQQQQQQQQQQQQQQQQQQSz7vbbbiibbbbiibbniibbb47lCQQQQQQQQQQQQQQQQQQQQQQQQNg0677w7ww6wwwwwwwwwewwewww0w0w0ww04sQQQQQQ",
"QQQQQQcVIQQQQQQQQQQQQQQQQQQQQQQQQJz5vbbbibbbbbbbbbbb7iii67gCQQQQQQQQQQQQQQQQQQQQQQQQNg0677w7w766wwwwwwwwwwwwwwwwww0wwwwe4sQQQQQQ",
"QQQQQQPPQQQQQQQQQQQQQQQQQQQQQQQQHz7vibbbbbbbbbbbbbbbi4b76ACQQQQQQQQQQQQQQQQQQQQQQQQBk08w00000000w080q0q0wwwwwwwwwww00ww04sQQQQQQ",
"QQQQQKKQQQQQQQQQQQQQQQQQQQQQQQQSz7bbbbbbbbbbbbbb7bbb7i76VCQQQQQQQQQQQQQQQQQQQQQQQQBBaikfppakkappppappppawwwwwwwe0wwwwww04sQQQQQQ",
"QQQQQQQQQQQQQQQQQQQQQQQQQQQQQQJl77bbbbnvbibibbbbbbb7577lCQQQQQQQQQQQQQQQQQQQQQQQQQgBQQQQQQQQQQQQQQQQQQQB4ewwwwwwwwww0wwe4;QQQQQQ",
"QQQQQQQQQQQQQQQQQQQQQQQQQQQQQHz7bvbbbbbbb7i7bbbbbbbb67lCQQQQQQQQQQQQQQQQQQQQQQQQQQQQQQQQQQQQQQQQQQQQQQQB4ewwwwwwwww0ww4e7sQQQQQQ",
"QQQQQQQQQQQQQQQQQQQQQQQQQQQQHz7vbbbbbbbbb7bbi7bbb7v77lCQQQQQQQQQQQQQQQQQQQQQQQQQQQQQQQQQQQQQQQQQQQQQQQQs4wwwwew00w0w00we4;QQQQQQ",
"QQQQQQQQQQQQQQQQQQQQQQQQQQQIz77bvbbbbbbb4i4i7iin7b77lCQQQQQQQQQQQQQQQQQQQQQQQQQQQQQQQQQQQQQQQQQQQQQQQQQs4ewwwwwwwwwwwwwe4;QQQQQQ",
"QQQQQQQQQQQQQQQQQQQQQQQQQQSz67bbbbbbbbbbbnb7i7i7777hCQQQQQQQQQQQQQQQQQQQQQQQQQQQQQQQQQQQQQQQQQQQQQQQQQQs4wwwwwwww00wwwwq4;QQQQQQ",
"QQQQQQQQQQQQQQQQQQQQQQQQQHz77bbbb7bbbb7b4ib77bnb75lCQQQQQQQQQQQQQQQQQQQQQQQQQQQQQQQQQQQQQQQQQQQQQQQQQQQs4ewww0ww0ww0www04;QQQQQQ",
"QQQQQQQQQQQQQQQQQQQQQQQQIc6vbbbbnibb7bbn77bb7bb66ZSQQQQQQQQQQQQQQQQQQQQQQQQQQQQQQQQQQQQQQQQQQQQQQQQQQQQ,40www0wwwwwwwwwqw;QQQQQQ",
"QQQQQQQQQQQQQQQQQQQQQQQHz47bbb7b747b7b7bbb7bbb77lCQQQQQQQQQQQQQQQQQQQQQQQQQQQQQQQQQQQQQQQQQQQQQQQQQQQQQ,4eww0ww0w00www004-QQQQQQ",
"QQQQQQQQQQQQQQQQQQQQQQJz56i4bb7bbb7bb7bbbbb7777zCQQQQQQQQQQQQQQQQQQQQQQQQQQQQQQQQQQQQQQQQQQQQQQQQQQQQQQ;4enww0w0wwwww0nq7;QQQQQQ",
"QQQQQQQQQQQQQQQQQQQQQHc66i7b7bb7b77b7bb7777777zCQQQQQQQQQQQQQQQQQQQQQQQQQQQQQQQQQQQQQQQQQQQQQQQQQQQQQQQ,40wwww0ww00w00w04-QQQQQQ",
"QQQQQQQQQQQQQQQQQQQQSz77bbbb7b7bbbb77b7b7bb77lCQQQQQQQQQQQQQQQQQQQQQQQQQQQQQQQQQQQQQQQQQQQQQQQQQQQQQQQQ;4e0w0www0www040q4;QQQQQQ",
"QQQQQQQQQQQQQQQQQQQHz6wbb7b7b7bn777bb7n77b67lCQQQQQQQQQQQQQQQQQQQQQQQQQQQQQQQQQQQQQQQQQQQQQQQQQQQQQQQQQ;40www0wwwwwww0004-QQQQQQ",
"QQQQQQQQQQQQQQQQQQIc67bb7bb7bb7n77b7n4b7b67lCQQQQQQQQQQQQQQQQQQQQQQQQQQQQQQQQQQQQQQQQQQQQQQQQQQQQQQQQQQ;4wwwwwwwewwwwwwe3sQQQQQQ",
"QQQQQQQQQQQQQQQQQSz6wb77b77b777ib77b7b7bw6lCQQQQQQQQQQQQQQQQQQQQQQQQQQQQQQQQQQQQQQQQQQQQQQQQQQQQQQQQQQQ,40wwwew0wwww0w0e4sQQQQQQ",
"QQQQQQQQQQQQQQQQSc46bbn77b7nbb777b7477b66gSQQQQQQQQQQQQQQQQQQQQQQQQQQQQQQQQQQQQQQQQQQQQQQQQQQQQQQQQQQQQ;4e0wwwwwwwwwwwww4-QQQQQQ",
"QQQQQQQQQQQQQQQLc65477477777777474n77bwwZSQQQQQQQQQQQQQQQQQQQQQQQQQQQQQQQQQQQQQQQQQQQQQQQQQQQQQQQQQQQQQ;4ewwwwwwwwwwwwwe4sQQQQQQ",
"QQQQQQQQQQQQQQJc664ni74b777777n477i7i76lCQQQQQQQQQQQQQQQQQQQQQQQQQQQQQQQQQQQQQQQQQQQQQQQQQQQQQQQQQQQQQQ;4wwwwwwwwwwwwwwe4-QQQQQQ",
"QQQQQQQQQQQQQLk66iw4777777i477774n7706lSQQQQQQQQQQQQQQQQQQQQQQQQQQQQQQQQQQQQQQQQQQQQQQQQQQQQQQQQQQQQQQQ,40wwe0w0weewwwww4;QQQQQQ",
"QQQQQQQQQQQQIc67i77777n7747n774n77447lQQQQQQQQQQQQQQQQQQQQQQQQQQQQQQQQQQQQQQQQQQQQQQQQQQQQQQQQQQQQQQQQQ;4ewwwwwwwwwwwwwe4;QQQQQQ",
"QQQQQQQQQQQSc66774777447777477747460kFQQQQQQQQQQQQQQQQQQQQQQQQQQQQQQQQQQQQQQQQQQQQQQQQQQQQQQQQQQQQQQQQQ>4ewwwww0wwwwwewew-QQQQQQ",
"QQQQQQQQQQJc677777774n777777777wn7bwnzzkcjckkkkkkkkkkkkjjjjjgjjdxjjjjjjjppppppppxppppppdrpppddrpdpddpddyw0www0ww0www0qw04-QQQQQQ",
"QQQQQQQQQLc67n77777n7w777777777nw77760w06600www0w0w600ww0w0w000000w0000000000w0eqq0800800e00000e00800q08wwwwwwwwww0wnwww4-QQQQQQ",
"QQQQQQQQLx66n777777w777777w77w777w777777777777n4w77ww7407w7wwwwwwww0ww0wwwwww000www00000wwwwww000w00w00w000wwwww0w0www0q4-QQQQQQ",
"QQQQQQQLc6w7w7wwnw7w7777w7n777w77w7w777w76w777w777w77ww7w7wwww7wwwwwwwww4ew0wwwwwwww040wwewwwwwww0ww0www0ww0w0w00wwwww004-QQQQQQ",
"QQQQQQQK767w777777w777wn77nww7777wn777777470w4www7w7wn04ww7wnw7wwwwwwwwwww0wwwwww0w0w400wewwewwwwww0wwwwwwww0wwwww0w0ww04-QQQQQQ",
"QQQQQQPi077w7w7777w7707ww777n77ww747www77077w77w7w70ww70w7wwwwwwwwwww0www0www0w0wwwww0wwwwwwwwwww0wwww0w0wwwww0w0wwww0004-QQQQQQ",
"QQQQQQKw67w77w7w7n7w77nw777w7770w74ww770w4ww4w740404www4w700wwwwwwwww0w0wwww0wwww0www004wwwwwwwwwwwwwwwwwwww0w00ww0www004-QQQQQQ",
"QQQQQQM6w7w7w7w77ww77w47ww7wwww77nww7w4nwww7070n70404w40www7wwwwww0wwwwww0w0www0ww0wwwwwwwwwwwwew0w0w0wwwwwwwwwww0ww0w004-QQQQQQ",
"QQQQQQx67ww4w77w7ww7w7ww7ww7007ww7w4w7wwwww6w7wwnww4wwwwwnwwwwwwww0wwwww04w0w0ww0ww0www0w0wwww0ww00wwew0w0w0www0ww0ww0w04-QQQQQQ",
"QQQQQQx0ww7077w7077ww477077w474w7w70404w4w74w7wwwwwwwwww00wwwwwwwwww0w0wwwwwwww0w000w0wwww0ww0wwwwwwwwwwww0w00wwwwww0wwe4-QQQQQQ",
"QQQQQQx07ww707www4wwwww447w4wnw77w7w0wwww407wwwwwwwwwwwwwwwwwwwwww0www0ww0w0www0wwwwwwwww0wwwww00w0wwwww0w0wnww0w0ww0wwqr-QQQQQQ",
"QQQQQQP00w40707wwww74wwwwwwwwwwwwwwwnw4wwww0wwwwwwwwwwwwwwwqwwww0w0w000wwwww0wwww0w0wwwwww0ww0wwwwwwwwwwn0ww0ww00ww0wwwer2QQQQQQ",
"QQQQQQYc0wwwwwwwwww7wwnwwwww4ww47ww77wwwwww7ww7wwwww0wwwwwwwwwwwwwww0w0wwwwww0wwww0w070w0w0wwwww0wwwwwwwww0ww0wwww0wwwqw1QQQQQQQ",
"QQQQQQQEw07wwww77wwwnwww7w7wwww0wwwwwwwwwwwwwwwwwwww0w0ww0ww0w0wwww0wwww0w0www0ww0ww00www0www00wwwwewww0www0www0w0www09L%QQQQQQQ",
"QQQQQQQ3E00ww7wwwwww0700wwwwwwww6wwwwwwwww7wwwwwww0w0ww0www0www0wwww0wwwwww0wwwwwwwwnw00wwwwwwwwwwwww0ww0wwwwww00ww009x2QQQQQQQQ",
"QQQQQQQQrE780w60w0707004wwwwwwwww0wwww000w0000000wwww0ww00ww0w000www0w0000w00w00w0www00www00000wwewwww00ww00w0w00w0eeL2QQQQQQQQQ",
"QQQQQQQQQ#TWmw00060w00000w0w000w0000000q000000000000wq00ww000ww000000000wew000w0000000w0w0qw00w0we000w000qw000000wncG&QQQQQQQQQQ",
"QQQQQQQQQQQ$DTTTTRTTRYUYYYYYYYYYIYYYIYIYYIYIYIILLLIPIIIIPPIPIYPPLIILIHISLLHLILSIHHHSHICJJFJCHHHFFSSHJCCJCCJFFFFFJFN%@QQQQQQQQQQQ",
"QQQQQQQQQQQQQQQQOOOOOOOOOOooOoooooooooooo.o..ooooo.o.oo...o.............o.......................oo.X.XXXXXXXXXXX+QQQQQQQQQQQQQQQ",
"QQQQQQQQQQQQQQQQQQQQQQQQQQQQQQQQQQQQQQQ                                                  QQQQQQQQQQQQQQQQQQQQQQQQQQQQQQQQQQQQQQQ",
"QQQQQQQQQQQQQQQQQQQQQQQQQQQQQQQQQQQQQQQQQQQQQQQQQ                              QQQQQQQQQQQQQQQQQQQQQQQQQQQQQQQQQQQQQQQQQQQQQQQQQ",
"QQQQQQQQQQQQQQQQQQQQQQQQQQQQQQQQQQQQQQQQQQQQQQQQQQQQQQQQQQQQQQQQQQQQQQQQQQQQQQQQQQQQQQQQQQQQQQQQQQQQQQQQQQQQQQQQQQQQQQQQQQQQQQQQ",
"QQQQQQQQQQQQQQQQQQQQQQQQQQQQQQQQQQQQQQQQQQQQQQQQQQQQQQQQQQQQQQQQQQQQQQQQQQQQQQQQQQQQQQQQQQQQQQQQQQQQQQQQQQQQQQQQQQQQQQQQQQQQQQQQ",
"QQQQQQQQQQQQQQQQQQQQQQQQQQQQQQQQQQQQQQQQQQQQQQQQQQQQQQQQQQQQQQQQQQQQQQQQQQQQQQQQQQQQQQQQQQQQQQQQQQQQQQQQQQQQQQQQQQQQQQQQQQQQQQQQ"
};
