/* XPM */
static char *result[] = {
/* columns rows colors chars-per-pixel */
"33 33 37 1 ",
"  c #9B1C2E",
". c #A02839",
"X c #A1293A",
"o c #A53444",
"O c #A73747",
"+ c #A93D4C",
"@ c #AA3F4E",
"# c #AD4654",
"$ c #AE4857",
"% c #B14E5C",
"& c #B35260",
"* c #B35461",
"= c #B45562",
"- c #B65A67",
"; c #B75B68",
": c #B85E6B",
"> c #B9616E",
", c #BA626E",
"< c #BB6672",
"1 c #BC6773",
"2 c #BD6975",
"3 c #BF6E79",
"4 c #C0707B",
"5 c #C1737E",
"6 c #C37883",
"7 c #C67E89",
"8 c #CB8992",
"9 c #CC8D96",
"0 c #D39BA3",
"q c #D9A9B0",
"w c #E4C3C7",
"e c #E5C5CA",
"r c #EBD3D7",
"t c #F2E2E4",
"y c #F8F0F1",
"u c #FEFEFE",
"i c None",
/* pixels */
"iiiiiiiiiiiiiiiiiiiiiiiiiiiiiiiii",
"iiiiiiiiiii5-+    @&<iiiiiiiiiiii",
"iiiiiiiii-            %iiiiiiiiii",
"iiiiiii1                =iiiiiiii",
"iiiiii+                  oiiiiiii",
"iiiii@                    .iiiiii",
"iiii@              7yuuuuuuuiiiii",
"iii%              Ouuuuuuuuuuiiii",
"iii               quuuuuuuuuuuiii",
"iio              #uuuueeeeeeewiii",
"i2               euuu7        1ii",
"i&              *uuut         oii",
"i               euuu*          ii",
"i              *uuue           3i",
"<        #*****tuuu9**#        ;i",
"1       ,uuuuuuuuuuuuuu4       $i",
"1       9uuuuuuuuuuuuuue       $i",
"1       ,uuuuuuuuuuuuuu0       $i",
">        ,990uuuu999997        =i",
"i           9uuuq              1i",
"i          XyuuuO              ii",
"i+         9uuu9              .ii",
"i5        XyuuyX              -ii",
"ii89999999tuuu9               iii",
"iiiuuuuuuuuuuyX              -iii",
"iiiuuuuuuuuuu9              .iiii",
"iiiiuuuuuuuur               iiiii",
"iiiii:******               5iiiii",
"iiiiii.                  .5iiiiii",
"iiiiiii&                @iiiiiiii",
"iiiiiiiii+            o5iiiiiiiii",
"iiiiiiiiiii>@      o-6iiiiiiiiiii",
"iiiiiiiiiiiiiiiiiiiiiiiiiiiiiiiii"
};
