/* XPM */
static char *result[] = {
/* columns rows colors chars-per-pixel */
"65 65 39 1 ",
"  c #9B1C2E",
". c #A02839",
"X c #A1293A",
"o c #A43142",
"O c #A53444",
"+ c #A73747",
"@ c #A83A4A",
"# c #A93D4C",
"$ c #AA3F4E",
"% c #AC4352",
"& c #AD4654",
"* c #AE4857",
"= c #AF4A58",
"- c #B14E5C",
"; c #B2505E",
": c #B35461",
"> c #B45562",
", c #B65A67",
"< c #B75B68",
"1 c #B85E6B",
"2 c #B9616E",
"3 c #BA626E",
"4 c #BB6672",
"5 c #BC6773",
"6 c #BD6975",
"7 c #C0707B",
"8 c #C1737E",
"9 c #C37883",
"0 c #CC8D96",
"q c #D39BA3",
"w c #D9A9B0",
"e c #DFB7BD",
"r c #E3C1C6",
"t c #E5C5CA",
"y c #EBD3D7",
"u c #F2E2E4",
"i c #F8F0F1",
"p c #FEFEFE",
"a c None",
/* pixels */
"aaaaaaaaaaaaaaaaaaaaaaaaaaaaaaaaaaaaaaaaaaaaaaaaaaaaaaaaaaaaaaaaa",
"aaaaaaaaaaaaaaaaaaaaaaaaaaaaa155555,aaaaaaaaaaaaaaaaaaaaaaaaaaaaa",
"aaaaaaaaaaaaaaaaaaaaaaaa4-.            #29aaaaaaaaaaaaaaaaaaaaaaa",
"aaaaaaaaaaaaaaaaaaaaa4$                    ,aaaaaaaaaaaaaaaaaaaaa",
"aaaaaaaaaaaaaaaaaaa>                         O8aaaaaaaaaaaaaaaaaa",
"aaaaaaaaaaaaaaaaa<                             Oaaaaaaaaaaaaaaaaa",
"aaaaaaaaaaaaaaa9.                                &aaaaaaaaaaaaaaa",
"aaaaaaaaaaaaaa>                                   .9aaaaaaaaaaaaa",
"aaaaaaaaaaaaa$                                      <aaaaaaaaaaaa",
"aaaaaaaaaaaa.                                        ,aaaaaaaaaaa",
"aaaaaaaaaaa.                                          +aaaaaaaaaa",
"aaaaaaaaaa.                             300000000000000raaaaaaaaa",
"aaaaaaaaa.                             tpppppppppppppppppaaaaaaaa",
"aaaaaaaa$                             7ppppppppppppppppppaaaaaaaa",
"aaaaaaa2                              upppppppppppppppppppaaaaaaa",
"aaaaaaa                              0pppppppppppppppppppppaaaaaa",
"aaaaaaO                             Xipppppppppppppppppppppaaaaaa",
"aaaaa2                              0pppppppppppppppppppppppaaaaa",
"aaaaa.                             Xippppppppppppppppppppppppaaaa",
"aaaa2                              0pppppppi0                aaaa",
"aaaa.                             +pppppppp0                 5aaa",
"aaa6                              wpppppppu                  Oaaa",
"aaa-                             +pppppppp7                   aaa",
"aaa                              wpppppppu                    >aa",
"aaa                             &pppppppp7                    Oaa",
"aa<                             tpppppppy                      aa",
"aa*                            :pppppppp:                      9a",
"aa.                            tpppppppt                       5a",
"aa                 :::::::::::7pppppppp0::::::+                -a",
"aa               +uppppppppppppppppppppppppppppw               *a",
"aa               0pppppppppppppppppppppppppppppp+              #a",
"aa               0pppppppppppppppppppppppppppppp:               a",
"aa               0pppppppppppppppppppppppppppppp:               a",
"aa               0pppppppppppppppppppppppppppppp:               a",
"aa               0pppppppppppppppppppppppppppppp&              oa",
"aa               :pppppppppppppppppppppppppppppy               *a",
"aa                +:::::::epppppppi::::::::::::                &a",
"aa                       Xippppppp0                            5a",
"aa*                      wpppppppiX                            6a",
"aa2                     +pppppppp7                             aa",
"aa6                     wpppppppu                             .aa",
"aaa                    +pppppppp7                             ,aa",
"aaa@                   tpppppppu                              6aa",
"aaa8                  :pppppppp:                             .aaa",
"aaaa.                 tpppppppt                              >aaa",
"aaaa;               X0pppppppp:                              aaaa",
"aaaaatttttttttttttttuppppppppt                              %aaaa",
"aaaaapppppppppppppppppppppppp:                              aaaaa",
"aaaaaappppppppppppppppppppppw                              >aaaaa",
"aaaaaaappppppppppppppppppppp+                             .aaaaaa",
"aaaaaaappppppppppppppppppppw                              aaaaaaa",
"aaaaaaaappppppppppppppppppp+                             2aaaaaaa",
"aaaaaaaaapppppppppppppppppq                             #aaaaaaaa",
"aaaaaaaaaaytttttttttttttt3                             $aaaaaaaaa",
"aaaaaaaaaa8                                           $aaaaaaaaaa",
"aaaaaaaaaaa8                                         $aaaaaaaaaaa",
"aaaaaaaaaaaaa.                                      &aaaaaaaaaaaa",
"aaaaaaaaaaaaaa$                                    <aaaaaaaaaaaaa",
"aaaaaaaaaaaaaaa5                                 Oaaaaaaaaaaaaaaa",
"aaaaaaaaaaaaaaaaa*                              5aaaaaaaaaaaaaaaa",
"aaaaaaaaaaaaaaaaaaa*                          ;aaaaaaaaaaaaaaaaaa",
"aaaaaaaaaaaaaaaaaaaaa,                     O2aaaaaaaaaaaaaaaaaaaa",
"aaaaaaaaaaaaaaaaaaaaaaa6,O              #<aaaaaaaaaaaaaaaaaaaaaaa",
"aaaaaaaaaaaaaaaaaaaaaaaaaaaa25=****;56aaaaaaaaaaaaaaaaaaaaaaaaaaa",
"aaaaaaaaaaaaaaaaaaaaaaaaaaaaaaaaaaaaaaaaaaaaaaaaaaaaaaaaaaaaaaaaa"
};
